<svg width="116" height="94" viewBox="0 0 116 94" fill="none" xmlns="http://www.w3.org/2000/svg">
<g clip-path="url(#clip0_117_17)">
<path d="M71.195 0.758804C68.1138 -0.129321 64.9056 1.66505 64.0175 4.7463L40.8175 85.9463C39.9294 89.0276 41.7238 92.2357 44.805 93.1238C47.8863 94.0119 51.0944 92.2176 51.9825 89.1363L75.1825 7.9363C76.0706 4.85505 74.2763 1.64693 71.195 0.758804ZM85.8038 22.5269C83.5381 24.7926 83.5381 28.4719 85.8038 30.7376L101.989 46.9413L85.7856 63.1451C83.52 65.4107 83.52 69.0901 85.7856 71.3557C88.0513 73.6213 91.7306 73.6213 93.9962 71.3557L114.296 51.0557C116.562 48.7901 116.562 45.1107 114.296 42.8451L93.9962 22.5451C91.7306 20.2794 88.0513 20.2794 85.7856 22.5451L85.8038 22.5269ZM30.2144 22.5269C27.9488 20.2613 24.2694 20.2613 22.0038 22.5269L1.70375 42.8269C-0.561874 45.0926 -0.561874 48.7719 1.70375 51.0376L22.0038 71.3376C24.2694 73.6032 27.9488 73.6032 30.2144 71.3376C32.48 69.0719 32.48 65.3926 30.2144 63.1269L14.0106 46.9413L30.2144 30.7376C32.48 28.4719 32.48 24.7926 30.2144 22.5269Z" fill="#9D71E8"/>
</g>
<defs>
<clipPath id="clip0_117_17">
<rect width="116" height="92.8" fill="white" transform="translate(0 0.54126)"/>
</clipPath>
</defs>
</svg>
