<svg width="116" height="156" viewBox="0 0 116 156" fill="none" xmlns="http://www.w3.org/2000/svg">
<g clip-path="url(#clip0_118_20)">
<path d="M4.83334 19.8746C4.83334 9.21105 13.5031 0.54126 24.1667 0.54126H91.8333C102.497 0.54126 111.167 9.21105 111.167 19.8746V135.875C111.167 146.538 102.497 155.208 91.8333 155.208H24.1667C13.5031 155.208 4.83334 146.538 4.83334 135.875V19.8746ZM43.5 135.875C43.5 138.533 45.675 140.708 48.3333 140.708H67.6667C70.325 140.708 72.5 138.533 72.5 135.875C72.5 133.216 70.325 131.041 67.6667 131.041H48.3333C45.675 131.041 43.5 133.216 43.5 135.875ZM91.8333 19.8746H24.1667V116.541H91.8333V19.8746Z" fill="#9D71E8"/>
</g>
<defs>
<clipPath id="clip0_118_20">
<rect width="116" height="154.667" fill="white" transform="translate(0 0.54126)"/>
</clipPath>
</defs>
</svg>
