<svg width="792" height="337" viewBox="0 0 792 337" fill="none" xmlns="http://www.w3.org/2000/svg">
<path d="M1 386.5C1 386.5 199.412 192.382 363 160C490.065 134.848 588.049 263.222 693.5 188C761.918 139.195 800 1 800 1" stroke="#9D71E8" stroke-dasharray="2 4 6 8"/>
<path d="M1 416.5C1 416.5 199.412 222.382 363 190C490.065 164.848 588.049 293.222 693.5 218C761.918 169.195 800 31 800 31" stroke="#9D71E8" stroke-dasharray="2 4 6 8"/>
<path d="M1 407.5C1 407.5 199.412 213.382 363 181C490.065 155.848 588.049 284.222 693.5 209C761.918 160.195 800 22 800 22" stroke="#9D71E8" stroke-dasharray="2 4 6 8"/>
<path d="M1 397.5C1 397.5 199.412 203.382 363 171C490.065 145.848 588.049 274.222 693.5 199C761.918 150.195 800 12 800 12" stroke="#9D71E8" stroke-dasharray="2 4 6 8"/>
<path d="M1 466.5C1 466.5 199.412 272.382 363 240C490.065 214.848 588.049 343.222 693.5 268C761.918 219.195 800 81 800 81" stroke="#B2C9FF" stroke-dasharray="2 4 6 8"/>
<path d="M1 496.5C1 496.5 199.412 302.382 363 270C490.065 244.848 588.049 373.222 693.5 298C761.918 249.195 800 111 800 111" stroke="#B2C9FF" stroke-dasharray="2 4 6 8"/>
<path d="M1 487.5C1 487.5 199.412 293.382 363 261C490.065 235.848 588.049 364.222 693.5 289C761.918 240.195 800 102 800 102" stroke="#B2C9FF" stroke-dasharray="2 4 6 8"/>
<path d="M1 477.5C1 477.5 199.412 283.382 363 251C490.065 225.848 588.049 354.222 693.5 279C761.918 230.195 800 92 800 92" stroke="#B2C9FF" stroke-dasharray="2 4 6 8"/>
<path d="M1 424.5C1 424.5 199.412 230.382 363 198C490.065 172.848 588.049 301.222 693.5 226C761.918 177.195 800 39 800 39" stroke="#BE99FF" stroke-dasharray="2 4 6 8"/>
<path d="M1 454.5C1 454.5 199.412 260.382 363 228C490.065 202.848 588.049 331.222 693.5 256C761.918 207.195 800 69 800 69" stroke="#BE99FF" stroke-dasharray="2 4 6 8"/>
<path d="M1 445.5C1 445.5 199.412 251.382 363 219C490.065 193.848 588.049 322.222 693.5 247C761.918 198.195 800 60 800 60" stroke="#BE99FF" stroke-dasharray="2 4 6 8"/>
<path d="M1 435.5C1 435.5 199.412 241.382 363 209C490.065 183.848 588.049 312.222 693.5 237C761.918 188.195 800 50 800 50" stroke="#BE99FF" stroke-dasharray="2 4 6 8"/>
</svg>
