<svg width="430" height="580" viewBox="0 0 430 580" fill="none" xmlns="http://www.w3.org/2000/svg">
<g clip-path="url(#clip0_3528_32)">
<g opacity="0.3">
<path d="M461.728 540.979C461.728 541.027 461.728 541.081 461.728 541.129C461.53 551.757 452.776 560.361 442.148 560.387C431.203 560.42 422.331 551.5 422.449 540.533C422.562 529.911 431.23 521.237 441.853 521.109C447.513 521.044 452.636 523.37 456.261 527.145C457.067 527.983 458.318 528.224 459.387 527.768L473.387 521.855C475.111 521.125 475.546 518.885 474.225 517.564L460.536 503.875C459.102 502.441 457.158 501.636 455.128 501.636H429.066C427.036 501.636 425.092 502.441 423.658 503.875L405.227 522.306C403.793 523.74 402.987 525.684 402.987 527.714V553.777C402.987 555.807 403.793 557.751 405.227 559.184L423.658 577.616C425.092 579.05 427.036 579.855 429.066 579.855H455.128C457.158 579.855 459.102 579.05 460.536 577.616L478.967 559.184C480.401 557.751 481.207 555.807 481.207 553.777V535.582C481.207 533.643 479.23 532.327 477.442 533.085L462.899 539.228C462.196 539.524 461.744 540.211 461.734 540.974L461.728 540.979Z" fill="#7A81C7"/>
</g>
<g opacity="0.3">
<path d="M362.93 540.979C362.93 541.027 362.93 541.081 362.93 541.129C362.731 551.757 353.977 560.361 343.349 560.387C332.404 560.42 323.533 551.5 323.651 540.533C323.763 529.911 332.431 521.237 343.054 521.109C348.714 521.044 353.838 523.37 357.463 527.145C358.268 527.983 359.519 528.224 360.588 527.768L374.589 521.855C376.313 521.125 376.748 518.885 375.426 517.564L361.737 503.875C360.303 502.441 358.359 501.636 356.329 501.636H330.267C328.237 501.636 326.293 502.441 324.859 503.875L306.428 522.306C304.994 523.74 304.188 525.684 304.188 527.714V553.777C304.188 555.807 304.994 557.751 306.428 559.184L324.859 577.616C326.293 579.05 328.237 579.855 330.267 579.855H356.329C358.359 579.855 360.303 579.05 361.737 577.616L380.169 559.184C381.602 557.751 382.408 555.807 382.408 553.777V535.582C382.408 533.643 380.432 532.327 378.643 533.085L364.1 539.228C363.397 539.524 362.946 540.211 362.935 540.974L362.93 540.979Z" fill="#7A81C7"/>
</g>
<g opacity="0.3">
<path d="M264.131 540.979C264.131 541.027 264.131 541.081 264.131 541.129C263.932 551.757 255.178 560.361 244.551 560.387C233.606 560.42 224.734 551.5 224.852 540.533C224.965 529.911 233.633 521.237 244.255 521.109C249.916 521.044 255.039 523.37 258.664 527.145C259.469 527.983 260.721 528.224 261.789 527.768L275.79 521.855C277.514 521.125 277.949 518.885 276.628 517.564L262.939 503.875C261.505 502.441 259.561 501.636 257.531 501.636H231.468C229.438 501.636 227.494 502.441 226.06 503.875L207.629 522.306C206.195 523.74 205.39 525.684 205.39 527.714V553.777C205.39 555.807 206.195 557.751 207.629 559.184L226.06 577.616C227.494 579.05 229.438 579.855 231.468 579.855H257.531C259.561 579.855 261.505 579.05 262.939 577.616L281.37 559.184C282.804 557.751 283.609 555.807 283.609 553.777V535.582C283.609 533.643 281.633 532.327 279.845 533.085L265.302 539.228C264.598 539.524 264.147 540.211 264.136 540.974L264.131 540.979Z" fill="#7A81C7"/>
</g>
<g opacity="0.3">
<path d="M165.327 540.979C165.327 541.027 165.327 541.081 165.327 541.129C165.128 551.757 156.374 560.361 145.746 560.387C134.802 560.42 125.93 551.5 126.048 540.533C126.161 529.911 134.828 521.237 145.451 521.109C151.111 521.044 156.235 523.37 159.86 527.145C160.665 527.983 161.917 528.224 162.985 527.768L176.986 521.855C178.71 521.125 179.145 518.885 177.824 517.564L164.135 503.875C162.701 502.441 160.757 501.636 158.727 501.636H132.664C130.634 501.636 128.69 502.441 127.256 503.875L108.825 522.306C107.391 523.74 106.586 525.684 106.586 527.714V553.777C106.586 555.807 107.391 557.751 108.825 559.184L127.256 577.616C128.69 579.05 130.634 579.855 132.664 579.855H158.727C160.757 579.855 162.701 579.05 164.135 577.616L182.566 559.184C184 557.751 184.805 555.807 184.805 553.777V535.582C184.805 533.643 182.829 532.327 181.04 533.085L166.498 539.228C165.794 539.524 165.343 540.211 165.332 540.974L165.327 540.979Z" fill="#7A81C7"/>
</g>
<g opacity="0.3">
<path d="M440.983 452.029C440.983 452.078 440.983 452.132 440.983 452.18C440.784 462.808 432.03 471.411 421.402 471.438C410.457 471.47 401.586 462.55 401.704 451.584C401.816 440.961 410.484 432.288 421.107 432.159C426.767 432.095 431.891 434.42 435.516 438.195C436.321 439.033 437.572 439.275 438.641 438.818L452.642 432.906C454.366 432.175 454.801 429.936 453.479 428.615L439.79 414.926C438.356 413.492 436.412 412.686 434.382 412.686H408.32C406.29 412.686 404.346 413.492 402.912 414.926L384.481 433.357C383.047 434.791 382.241 436.735 382.241 438.765V464.827C382.241 466.857 383.047 468.801 384.481 470.235L402.912 488.666C404.346 490.1 406.29 490.906 408.32 490.906H434.382C436.412 490.906 438.356 490.1 439.79 488.666L458.221 470.235C459.655 468.801 460.461 466.857 460.461 464.827V446.632C460.461 444.694 458.485 443.378 456.696 444.135L442.153 450.279C441.45 450.574 440.999 451.262 440.988 452.024L440.983 452.029Z" fill="#7A81C7"/>
</g>
<g opacity="0.3">
<path d="M342.184 452.029C342.184 452.078 342.184 452.132 342.184 452.18C341.985 462.808 333.231 471.411 322.604 471.438C311.659 471.47 302.787 462.55 302.905 451.584C303.018 440.961 311.686 432.288 322.308 432.159C327.968 432.095 333.092 434.42 336.717 438.195C337.522 439.033 338.774 439.275 339.842 438.818L353.843 432.906C355.567 432.175 356.002 429.936 354.681 428.615L340.992 414.926C339.558 413.492 337.614 412.686 335.584 412.686H309.521C307.491 412.686 305.547 413.492 304.113 414.926L285.682 433.357C284.248 434.791 283.443 436.735 283.443 438.765V464.827C283.443 466.857 284.248 468.801 285.682 470.235L304.113 488.666C305.547 490.1 307.491 490.906 309.521 490.906H335.584C337.614 490.906 339.558 490.1 340.992 488.666L359.423 470.235C360.857 468.801 361.662 466.857 361.662 464.827V446.632C361.662 444.694 359.686 443.378 357.898 444.135L343.355 450.279C342.651 450.574 342.2 451.262 342.189 452.024L342.184 452.029Z" fill="#7A81C7"/>
</g>
<g opacity="0.3">
<path d="M243.385 452.029C243.385 452.078 243.385 452.132 243.385 452.18C243.186 462.808 234.433 471.411 223.805 471.438C212.86 471.47 203.988 462.55 204.106 451.584C204.219 440.961 212.887 432.288 223.509 432.159C229.17 432.095 234.293 434.42 237.918 438.195C238.724 439.033 239.975 439.275 241.044 438.818L255.044 432.906C256.768 432.175 257.203 429.936 255.882 428.615L242.193 414.926C240.759 413.492 238.815 412.686 236.785 412.686H210.723C208.693 412.686 206.748 413.492 205.315 414.926L186.883 433.357C185.45 434.791 184.644 436.735 184.644 438.765V464.827C184.644 466.857 185.45 468.801 186.883 470.235L205.315 488.666C206.748 490.1 208.693 490.906 210.723 490.906H236.785C238.815 490.906 240.759 490.1 242.193 488.666L260.624 470.235C262.058 468.801 262.863 466.857 262.863 464.827V446.632C262.863 444.694 260.887 443.378 259.099 444.135L244.556 450.279C243.852 450.574 243.401 451.262 243.391 452.024L243.385 452.029Z" fill="#7A81C7"/>
</g>
<g opacity="0.3">
<path d="M390.592 361.12C390.592 361.168 390.592 361.222 390.592 361.27C390.394 371.898 381.64 380.502 371.012 380.528C360.067 380.561 351.195 371.64 351.314 360.674C351.426 350.051 360.094 341.378 370.717 341.249C376.377 341.185 381.5 343.51 385.125 347.286C385.931 348.124 387.182 348.365 388.251 347.909L402.252 341.996C403.975 341.266 404.41 339.026 403.089 337.705L389.4 324.016C387.966 322.582 386.022 321.776 383.992 321.776H357.93C355.9 321.776 353.956 322.582 352.522 324.016L334.091 342.447C332.657 343.881 331.851 345.825 331.851 347.855V373.917C331.851 375.947 332.657 377.892 334.091 379.325L352.522 397.757C353.956 399.19 355.9 399.996 357.93 399.996H383.992C386.022 399.996 387.966 399.19 389.4 397.757L407.831 379.325C409.265 377.892 410.071 375.947 410.071 373.917V355.723C410.071 353.784 408.094 352.468 406.306 353.225L391.763 359.369C391.06 359.664 390.609 360.352 390.598 361.114L390.592 361.12Z" fill="#7A81C7"/>
</g>
<g opacity="0.3">
<path d="M291.794 361.12C291.794 361.168 291.794 361.222 291.794 361.27C291.595 371.898 282.841 380.502 272.213 380.528C261.269 380.561 252.397 371.64 252.515 360.674C252.628 350.051 261.295 341.378 271.918 341.249C277.578 341.185 282.702 343.51 286.327 347.286C287.132 348.124 288.384 348.365 289.452 347.909L303.453 341.996C305.177 341.266 305.612 339.026 304.291 337.705L290.602 324.016C289.168 322.582 287.224 321.776 285.194 321.776H259.131C257.101 321.776 255.157 322.582 253.723 324.016L235.292 342.447C233.858 343.881 233.053 345.825 233.053 347.855V373.917C233.053 375.947 233.858 377.892 235.292 379.325L253.723 397.757C255.157 399.19 257.101 399.996 259.131 399.996H285.194C287.224 399.996 289.168 399.19 290.602 397.757L309.033 379.325C310.467 377.892 311.272 375.947 311.272 373.917V355.723C311.272 353.784 309.296 352.468 307.507 353.225L292.964 359.369C292.261 359.664 291.81 360.352 291.799 361.114L291.794 361.12Z" fill="#7A81C7"/>
</g>
<g opacity="0.3">
<path d="M442.685 269.823C442.685 269.872 442.685 269.926 442.685 269.974C442.486 280.602 433.733 289.205 423.105 289.232C412.16 289.264 403.288 280.344 403.406 269.378C403.519 258.755 412.187 250.082 422.809 249.953C428.47 249.889 433.593 252.214 437.218 255.989C438.024 256.827 439.275 257.069 440.344 256.612L454.344 250.7C456.068 249.969 456.503 247.73 455.182 246.409L441.493 232.72C440.059 231.286 438.115 230.48 436.085 230.48H410.022C407.992 230.48 406.048 231.286 404.615 232.72L386.183 251.151C384.75 252.585 383.944 254.529 383.944 256.559V282.621C383.944 284.651 384.75 286.595 386.183 288.029L404.615 306.46C406.048 307.894 407.992 308.7 410.022 308.7H436.085C438.115 308.7 440.059 307.894 441.493 306.46L459.924 288.029C461.358 286.595 462.163 284.651 462.163 282.621V264.426C462.163 262.488 460.187 261.172 458.399 261.929L443.856 268.073C443.152 268.368 442.701 269.056 442.69 269.818L442.685 269.823Z" fill="#7A81C7"/>
</g>
<g opacity="0.3">
<path d="M343.886 269.823C343.886 269.872 343.886 269.926 343.886 269.974C343.688 280.602 334.934 289.205 324.306 289.232C313.361 289.264 304.489 280.344 304.607 269.378C304.72 258.755 313.388 250.082 324.011 249.953C329.671 249.889 334.794 252.214 338.419 255.989C339.225 256.827 340.476 257.069 341.545 256.612L355.545 250.7C357.269 249.969 357.704 247.73 356.383 246.409L342.694 232.72C341.26 231.286 339.316 230.48 337.286 230.48H311.224C309.194 230.48 307.25 231.286 305.816 232.72L287.385 251.151C285.951 252.585 285.145 254.529 285.145 256.559V282.621C285.145 284.651 285.951 286.595 287.385 288.029L305.816 306.46C307.25 307.894 309.194 308.7 311.224 308.7H337.286C339.316 308.7 341.26 307.894 342.694 306.46L361.125 288.029C362.559 286.595 363.365 284.651 363.365 282.621V264.426C363.365 262.488 361.388 261.172 359.6 261.929L345.057 268.073C344.354 268.368 343.902 269.056 343.892 269.818L343.886 269.823Z" fill="#7A81C7"/>
</g>
<g opacity="0.3">
<path d="M390.609 181.212C390.609 181.261 390.609 181.314 390.609 181.363C390.41 191.991 381.656 200.594 371.028 200.621C360.083 200.653 351.211 191.733 351.33 180.767C351.442 170.144 360.11 161.471 370.733 161.342C376.393 161.278 381.516 163.603 385.141 167.378C385.947 168.216 387.198 168.458 388.267 168.001L402.268 162.089C403.991 161.358 404.426 159.119 403.105 157.798L389.416 144.109C387.982 142.675 386.038 141.869 384.008 141.869H357.946C355.916 141.869 353.972 142.675 352.538 144.109L334.107 162.54C332.673 163.974 331.867 165.918 331.867 167.948V194.01C331.867 196.04 332.673 197.984 334.107 199.418L352.538 217.849C353.972 219.283 355.916 220.089 357.946 220.089H384.008C386.038 220.089 387.982 219.283 389.416 217.849L407.847 199.418C409.281 197.984 410.087 196.04 410.087 194.01V175.815C410.087 173.876 408.111 172.561 406.322 173.318L391.779 179.462C391.076 179.757 390.625 180.444 390.614 181.207L390.609 181.212Z" fill="#7A81C7"/>
</g>
<g opacity="0.3">
<path d="M441.09 92.6013C441.09 92.6496 441.09 92.7033 441.09 92.7517C440.891 103.38 432.138 111.983 421.51 112.01C410.565 112.042 401.693 103.122 401.811 92.1556C401.924 81.533 410.592 72.8598 421.214 72.7309C426.875 72.6665 431.998 74.9919 435.623 78.7672C436.428 79.605 437.68 79.8467 438.748 79.3902L452.749 73.4774C454.473 72.747 454.908 70.5076 453.587 69.1865L439.898 55.4974C438.464 54.0635 436.52 53.258 434.49 53.258H408.427C406.397 53.258 404.453 54.0635 403.019 55.4974L384.588 73.9285C383.154 75.3624 382.349 77.3065 382.349 79.3365V105.399C382.349 107.429 383.154 109.373 384.588 110.807L403.019 129.238C404.453 130.672 406.397 131.477 408.427 131.477H434.49C436.52 131.477 438.464 130.672 439.898 129.238L458.329 110.807C459.763 109.373 460.568 107.429 460.568 105.399V87.2041C460.568 85.2654 458.592 83.9496 456.804 84.7069L442.261 90.8506C441.557 91.1459 441.106 91.8333 441.095 92.5959L441.09 92.6013Z" fill="#7A81C7"/>
</g>
</g>
<defs>
<clipPath id="clip0_3528_32">
<rect width="580" height="580" fill="white"/>
</clipPath>
</defs>
</svg>
