<svg width="412" height="151" viewBox="0 0 412 151" fill="none" xmlns="http://www.w3.org/2000/svg">
<g clip-path="url(#clip0_3516_1233)">
<path d="M204.79 309.441C204.525 309.441 204.261 309.441 204.005 309.433C148.043 308.376 102.727 262.292 102.565 206.311C102.403 148.66 149.39 101.945 207.142 102.567C263.088 103.164 308.787 148.805 309.443 204.751C309.793 234.579 297.526 261.542 277.639 280.628C273.223 284.873 271.97 291.454 274.348 297.098L305.505 370.826C309.341 379.897 321.139 382.207 328.103 375.242L400.202 303.133C407.755 295.58 412 285.325 412 274.644V137.365C412 126.675 407.755 116.428 400.202 108.876L303.127 11.798C295.574 4.24523 285.319 0 274.638 0L137.362 0C126.681 0 116.426 4.24523 108.873 11.798L11.7977 108.876C4.24513 116.428 0 126.683 0 137.365L0 274.644C0 285.325 4.24513 295.58 11.7977 303.133L108.865 400.202C116.417 407.755 126.672 412 137.353 412H233.184C243.405 412 250.31 401.574 246.337 392.163L213.979 315.57C212.419 311.871 208.805 309.475 204.79 309.433V309.441Z" fill="#7A81C7" fill-opacity="0.25"/>
</g>
<defs>
<clipPath id="clip0_3516_1233">
<rect width="412" height="151" fill="white"/>
</clipPath>
</defs>
</svg>
