<svg width="412" height="151" viewBox="0 0 412 151" fill="none" xmlns="http://www.w3.org/2000/svg">
<g clip-path="url(#clip0_3516_1231)">
<path d="M207.21 -158.441C207.475 -158.441 207.739 -158.441 207.995 -158.433C263.957 -157.376 309.273 -111.292 309.435 -55.311C309.597 2.34 262.61 49.055 204.858 48.433C148.912 47.836 103.213 2.19499 102.557 -53.751C102.207 -83.579 114.474 -110.542 134.361 -129.628C138.777 -133.873 140.03 -140.454 137.652 -146.098L106.495 -219.826C102.659 -228.897 90.861 -231.207 83.897 -224.242L11.798 -152.133C4.245 -144.58 0 -134.325 0 -123.644L0 13.635C0 24.325 4.245 34.572 11.798 42.124L108.873 139.202C116.426 146.755 126.681 151 137.362 151H274.638C285.319 151 295.574 146.755 303.127 139.202L400.202 42.124C407.755 34.572 412 24.317 412 13.635L412 -123.644C412 -134.325 407.755 -144.58 400.202 -152.133L303.135 -249.202C295.583 -256.755 285.328 -261 274.647 -261L178.816 -261C168.595 -261 161.69 -250.574 165.663 -241.163L198.021 -164.57C199.581 -160.871 203.195 -158.475 207.21 -158.433V-158.441Z" fill="#7A81C7" fill-opacity="0.25"/>
</g>
<defs>
<clipPath id="clip0_3516_1231">
<rect width="412" height="151" fill="white" transform="matrix(-1 0 0 -1 412 151)"/>
</clipPath>
</defs>
</svg>
