<?xml version="1.0" encoding="UTF-8"?>
<svg id="Capa_2" data-name="Capa 2" xmlns="http://www.w3.org/2000/svg" viewBox="0 0 857.59 217.59">
  <defs>
    <style>
      .cls-1 {
        fill: #1b134f;
      }
    </style>
  </defs>
  <g id="Capa_1_copia" data-name="Capa 1 copia">
    <g>
      <path class="cls-1" d="m186.77,93.85h0c0-6.46,5.24-11.7,11.7-11.7h43.44c6.46,0,11.7,5.24,11.7,11.7h0c0,6.46-5.24,11.7-11.7,11.7h-43.44c-6.46,0-11.7-5.24-11.7-11.7Z"/>
      <path class="cls-1" d="m349.7,167.48c-11.88,0-22.59-2.1-32.13-6.29-9.54-4.2-17.38-10.21-23.5-18.04-6.13-7.83-10.01-17.17-11.64-28.01l31.63-4.68c2.23,9.21,6.83,16.3,13.81,21.27,6.98,4.98,14.92,7.46,23.83,7.46,4.97,0,9.8-.78,14.48-2.34,4.68-1.56,8.52-3.86,11.53-6.9,3.01-3.04,4.51-6.79,4.51-11.25,0-1.63-.24-3.21-.72-4.73-.48-1.52-1.28-2.95-2.39-4.29-1.11-1.34-2.69-2.6-4.73-3.79-2.04-1.19-4.62-2.26-7.74-3.23l-41.66-12.25c-3.12-.89-6.74-2.15-10.86-3.79-4.12-1.63-8.11-3.97-11.97-7.02-3.86-3.04-7.07-7.07-9.63-12.08s-3.84-11.34-3.84-18.99c0-10.77,2.71-19.71,8.13-26.84,5.42-7.13,12.66-12.44,21.72-15.93,9.06-3.49,19.08-5.2,30.07-5.12,11.06.15,20.94,2.04,29.63,5.68,8.69,3.64,15.96,8.93,21.83,15.87,5.87,6.94,10.1,15.43,12.7,25.45l-32.75,5.57c-1.19-5.2-3.38-9.58-6.57-13.14-3.19-3.56-7-6.27-11.42-8.13-4.42-1.85-9.04-2.86-13.87-3.01-4.75-.15-9.23.5-13.42,1.95-4.2,1.45-7.61,3.55-10.25,6.29-2.64,2.75-3.95,6.01-3.95,9.8,0,3.49,1.08,6.33,3.23,8.52,2.15,2.19,4.86,3.95,8.13,5.29,3.27,1.34,6.61,2.45,10.02,3.34l27.84,7.57c4.16,1.11,8.76,2.58,13.81,4.4,5.05,1.82,9.89,4.34,14.54,7.57,4.64,3.23,8.46,7.48,11.47,12.75,3.01,5.27,4.51,11.96,4.51,20.05,0,8.61-1.8,16.13-5.4,22.55-3.6,6.42-8.45,11.73-14.54,15.93-6.09,4.2-12.98,7.33-20.66,9.41-7.69,2.08-15.61,3.12-23.78,3.12Z"/>
      <path class="cls-1" d="m464.2,164.13l-36.76-120.51,29.63.22,21.83,71.73,22.16-71.73h25.17l22.17,71.73,21.83-71.73h29.63l-36.75,120.29h-23.17l-26.29-78.41-26.29,78.41h-23.17Z"/>
      <path class="cls-1" d="m646.63,167.48c-8.61,0-15.91-1.65-21.89-4.96-5.98-3.3-10.51-7.72-13.59-13.25-3.08-5.53-4.62-11.64-4.62-18.32,0-5.57.85-10.65,2.56-15.26,1.71-4.6,4.47-8.67,8.3-12.2,3.82-3.53,8.97-6.48,15.43-8.85,4.46-1.63,9.76-3.08,15.93-4.34,6.16-1.26,13.14-2.47,20.94-3.62,7.8-1.15,16.37-2.43,25.73-3.84l-10.92,6.01c0-7.13-1.71-12.36-5.12-15.7-3.42-3.34-9.13-5.01-17.15-5.01-4.46,0-9.1,1.08-13.92,3.23-4.83,2.15-8.21,5.98-10.14,11.47l-27.4-8.69c3.04-9.95,8.76-18.04,17.15-24.28,8.39-6.24,19.83-9.36,34.31-9.36,10.62,0,20.05,1.63,28.29,4.9,8.24,3.27,14.48,8.91,18.71,16.93,2.38,4.46,3.79,8.91,4.23,13.37s.67,9.43.67,14.92v73.51h-26.51v-24.73l3.79,5.12c-5.87,8.09-12.2,13.94-18.99,17.54-6.79,3.6-15.39,5.4-25.79,5.4Zm6.46-23.84c5.57,0,10.26-.98,14.09-2.95,3.82-1.97,6.87-4.21,9.13-6.74,2.26-2.52,3.8-4.64,4.62-6.35,1.56-3.27,2.47-7.07,2.73-11.42.26-4.34.39-7.96.39-10.86l8.91,2.23c-8.99,1.49-16.26,2.73-21.83,3.73-5.57,1-10.06,1.91-13.48,2.73-3.42.82-6.42,1.71-9.02,2.67-2.97,1.19-5.37,2.47-7.18,3.84-1.82,1.38-3.16,2.88-4.01,4.51-.85,1.63-1.28,3.45-1.28,5.46,0,2.75.69,5.11,2.06,7.07,1.37,1.97,3.32,3.47,5.85,4.51,2.52,1.04,5.53,1.56,9.02,1.56Z"/>
      <path class="cls-1" d="m742.86,217.59V43.84h26.73v82.42h3.79v91.33h-30.52Zm59.25-50.12c-11.96,0-21.94-2.79-29.96-8.35-8.02-5.57-14.05-13.14-18.1-22.72-4.05-9.58-6.07-20.38-6.07-32.41s2-22.83,6.01-32.41,9.91-17.15,17.71-22.72c7.8-5.57,17.41-8.35,28.85-8.35s21.53,2.75,30.07,8.24c8.54,5.5,15.17,13.01,19.88,22.55,4.71,9.54,7.07,20.44,7.07,32.69s-2.32,22.83-6.96,32.41c-4.64,9.58-11.12,17.15-19.44,22.72-8.32,5.57-18.01,8.35-29.07,8.35Zm-4.9-26.96c6.53,0,11.88-1.63,16.04-4.9,4.16-3.27,7.24-7.67,9.24-13.2,2-5.53,3.01-11.68,3.01-18.43s-1.04-12.79-3.12-18.32c-2.08-5.53-5.29-9.95-9.63-13.25-4.34-3.3-9.9-4.96-16.65-4.96-6.31,0-11.42,1.52-15.32,4.57-3.9,3.05-6.74,7.31-8.52,12.81-1.78,5.5-2.67,11.88-2.67,19.16s.89,13.66,2.67,19.16c1.78,5.5,4.7,9.77,8.74,12.81,4.05,3.04,9.45,4.57,16.21,4.57Z"/>
      <path class="cls-1" d="m123.17,82.48c0,.1,0,.21,0,.31-.42,22.28-18.77,40.32-41.05,40.38-22.95.07-41.54-18.64-41.3-41.63.24-22.27,18.4-40.46,40.67-40.72,11.87-.14,22.6,4.74,30.2,12.66,1.69,1.76,4.31,2.26,6.55,1.31l29.35-12.4c3.61-1.53,4.53-6.22,1.76-9l-28.7-28.7c-3.01-3.01-7.09-4.7-11.34-4.7h-54.65c-4.25,0-8.33,1.69-11.34,4.7L4.7,43.34c-3.01,3.01-4.7,7.09-4.7,11.34v54.65c0,4.25,1.69,8.33,4.7,11.34l38.64,38.64c3.01,3.01,7.09,4.7,11.34,4.7h54.65c4.25,0,8.33-1.69,11.34-4.7l38.64-38.64c3.01-3.01,4.7-7.09,4.7-11.34v-38.15c0-4.07-4.15-6.82-7.9-5.23l-30.49,12.88c-1.47.62-2.42,2.06-2.44,3.66Z"/>
    </g>
  </g>
</svg>