<svg width="258" height="49" viewBox="0 0 258 49" fill="none" xmlns="http://www.w3.org/2000/svg">
  <g clip-path="url(#clip0_1409_8)">
    <path d="M47.7538 14.4418L30.7755 24.3334C30.7755 24.4653 30.7755 24.5937 30.7755 24.7256C30.7266 25.6222 30.3863 26.4775 29.8073 27.1593C29.2282 27.8411 28.4428 28.3113 27.5724 28.4973C26.7019 28.6833 25.795 28.5746 24.9919 28.1882C24.1888 27.8017 23.5343 27.159 23.1295 26.3594C22.7247 25.5597 22.5922 24.6478 22.7526 23.7645C22.9129 22.8813 23.3572 22.076 24.0166 21.4732C24.676 20.8703 25.5138 20.5036 26.4005 20.4296C27.2872 20.3556 28.1734 20.5786 28.9219 21.064L45.8865 11.1758L39.5037 0H14.1239L0 23.6323L14.1239 49H39.5037C44.1578 40.8114 48.8096 32.6216 53.4591 24.4306L47.7538 14.4418Z" fill="#7F5AF0"/>
    <path d="M58.3872 22.1157H86.7864V26.8845H58.3872V22.1157Z" fill="#E4E7EB"/>
    <path d="M91.7144 41.4059L95.7759 36.5955C99.2149 39.8475 103.761 41.9925 108.665 41.9925C114.377 41.9925 117.548 39.3408 117.548 35.6757C117.548 31.2262 114.254 29.9906 109.783 28.0817L103.421 25.2669C98.8125 23.4344 93.7572 20.0608 93.7572 13.3623C93.7572 6.26807 100.088 0.902298 108.992 0.902298C114.274 0.867251 119.361 2.91597 123.167 6.61168L119.594 11.0646C116.582 8.51364 113.304 7.00734 108.696 7.00734C103.95 7.00734 100.759 9.22515 100.759 12.9493C100.759 16.9024 104.652 18.3428 108.624 19.8908L114.745 22.6118C120.403 24.8366 124.629 28.165 124.629 34.815C124.629 42.1244 118.518 48.0871 108.287 48.0871C102.111 48.1241 96.1652 45.727 91.7144 41.4059Z" fill="#E4E7EB"/>
    <path d="M132.274 1.67969H139.802L142.594 29.1541C142.938 32.9928 143.155 35.5264 143.323 39.9308H143.543C144.317 35.5264 144.892 32.9893 145.748 29.2097L149.796 13.3622H155.563L159.463 29.2097C160.364 32.9511 160.879 35.5021 161.667 39.9308H161.942C162.166 35.5021 162.286 32.965 162.63 29.2097L165.312 1.67969H172.462L166.103 47.2645H157.987L154.029 30.0287C153.374 27.2809 152.861 24.5006 152.492 21.699H152.285C151.852 24.4756 151.453 27.214 150.803 30.0287L146.869 47.2645H138.935L132.274 1.67969Z" fill="#E4E7EB"/>
    <path d="M192.621 1.73535H200.672L215.577 47.2646H208.193L200.923 22.4696C199.462 17.5377 197.979 12.453 196.676 7.28855H196.401C195.046 12.4426 193.65 17.5272 192.181 22.4592L184.798 47.2542H177.717L192.621 1.73535ZM186.087 28.651H207.027V34.2042H186.087V28.651Z" fill="#E4E7EB"/>
    <path d="M226.812 1.73535H241.042C250.967 1.73535 258 5.1818 258 15.4517C258 25.3746 250.861 29.8901 241.042 29.8901H233.731V47.2646H226.812V1.73535ZM240.385 24.2952C247.649 24.2952 251.143 21.477 251.143 15.4656C251.143 9.39876 247.542 7.36143 240.385 7.36143H233.731V24.2952H240.385Z" fill="#E4E7EB"/>
  </g>
  <defs>
    <clipPath id="clip0_1409_8">
      <rect width="258" height="49" fill="white"/>
    </clipPath>
  </defs>
</svg>
