<?xml version="1.0" encoding="UTF-8"?>
<svg id="Capa_2" data-name="Capa 2" xmlns="http://www.w3.org/2000/svg" viewBox="0 0 847 847">
  <defs>
    <style>
      .cls-1 {
        fill: #1b134f;
      }

      .cls-2 {
        fill: #fbf8ff;
      }
    </style>
  </defs>
  <g id="Capa_1_copia" data-name="Capa 1 copia">
    <g>
      <circle class="cls-2" cx="423.5" cy="423.5" r="423.5"/>
      <path class="cls-1" d="m544.84,424.92c0,.31,0,.62-.01.92-1.24,65.65-55.3,118.81-120.97,119-67.63.19-122.43-54.93-121.7-122.68.7-65.63,54.24-119.24,119.87-120.01,34.99-.41,66.62,13.98,89.01,37.31,4.98,5.18,12.7,6.65,19.32,3.86l86.49-36.55c10.64-4.5,13.35-18.34,5.18-26.51l-84.59-84.59c-8.86-8.86-20.89-13.84-33.42-13.84h-161.04c-12.54,0-24.56,4.98-33.42,13.84l-113.88,113.88c-8.86,8.86-13.84,20.89-13.84,33.42v161.04c0,12.53,4.98,24.56,13.84,33.42l113.88,113.88c8.86,8.86,20.89,13.84,33.42,13.84h161.04c12.53,0,24.56-4.98,33.42-13.84l113.87-113.87c8.86-8.86,13.84-20.89,13.84-33.42v-112.42c0-11.99-12.23-20.09-23.27-15.43l-89.85,37.96c-4.34,1.83-7.15,6.07-7.2,10.78Z"/>
    </g>
  </g>
</svg>