<svg width="360" height="253" viewBox="0 0 360 253" fill="none" xmlns="http://www.w3.org/2000/svg">
<path d="M390.422 236.217C390.422 236.217 249.959 303.746 171.653 286.708C110.829 273.474 107.336 179.104 40.8937 199.076C-2.21516 212.035 -58.827 282.487 -58.827 282.487" stroke="#BE99FF" stroke-dasharray="2 4 6 8"/>
<path d="M397.986 221.552C397.986 221.552 257.522 289.082 179.216 272.044C118.393 258.81 114.9 164.44 48.4574 184.412C5.34856 197.37 -51.2633 267.822 -51.2633 267.822" stroke="#BE99FF" stroke-dasharray="2 4 6 8"/>
<path d="M389.638 242.367C389.638 242.367 249.174 309.897 170.868 292.859C110.045 279.625 106.552 185.255 40.1092 205.227C-2.99958 218.185 -59.6115 288.637 -59.6115 288.637" stroke="#BE99FF" stroke-dasharray="2 4 6 8"/>
<path d="M387.775 250.607C387.775 250.607 247.312 318.137 169.006 301.099C108.183 287.865 104.69 193.495 38.2469 213.467C-4.86195 226.425 -61.4738 296.878 -61.4738 296.878" stroke="#BE99FF" stroke-dasharray="2 4 6 8"/>
<path d="M384.027 257.875C384.027 257.875 243.563 325.404 165.258 308.367C104.434 295.133 100.941 200.763 34.4986 220.735C-8.61027 233.693 -65.2221 304.145 -65.2221 304.145" stroke="#BE99FF" stroke-dasharray="2 4 6 8"/>
<path d="M380.279 265.143C380.279 265.143 239.815 332.672 161.509 315.634C100.686 302.4 97.1929 208.03 30.7502 228.002C-12.3587 240.961 -68.9705 311.413 -68.9705 311.413" stroke="#BE99FF" stroke-dasharray="2 4 6 8"/>
<path d="M374.031 277.255C374.031 277.255 233.568 344.784 155.262 327.747C94.4386 314.513 90.9456 220.143 24.5029 240.115C-18.6059 253.073 -75.2178 323.525 -75.2178 323.525" stroke="#BE99FF" stroke-dasharray="2 4 6 8"/>
<path d="M369.697 285.264C369.697 285.264 229.234 352.794 150.928 335.756C90.1047 322.522 86.6117 228.152 20.169 248.124C-22.9399 261.082 -79.5517 331.534 -79.5517 331.534" stroke="#BE99FF" stroke-dasharray="2 4 6 8"/>
<path d="M376.462 272.149C376.462 272.149 235.998 339.679 157.692 322.641C96.8689 309.407 93.3759 215.037 26.9332 235.009C-16.1756 247.967 -72.7875 318.419 -72.7875 318.419" stroke="#BE99FF" stroke-dasharray="2 4 6 8"/>
<path d="M364.201 295.92C364.201 295.92 223.738 363.449 145.432 346.412C84.6087 333.178 81.1157 238.807 14.673 258.78C-28.4358 271.738 -85.0477 342.19 -85.0477 342.19" stroke="#BE99FF" stroke-dasharray="2 4 6 8"/>
<path d="M358.705 306.576C358.705 306.576 218.242 374.105 139.936 357.068C79.1127 343.834 75.6197 249.463 9.17702 269.436C-33.9318 282.394 -90.5437 352.846 -90.5437 352.846" stroke="#BE99FF" stroke-dasharray="2 4 6 8"/>
<path d="M354.901 313.953C354.901 313.953 214.437 381.482 136.131 364.445C75.3078 351.211 71.8148 256.84 5.37212 276.813C-37.7367 289.771 -94.3486 360.223 -94.3486 360.223" stroke="#BE99FF" stroke-dasharray="2 4 6 8"/>
<path d="M348.559 326.248C348.559 326.248 208.095 393.778 129.79 376.74C68.9663 363.506 65.4733 269.136 -0.969374 289.108C-44.0782 302.066 -100.69 372.518 -100.69 372.518" stroke="#BE99FF" stroke-dasharray="2 4 6 8"/>
<path d="M393.654 229.951C393.654 229.951 253.19 297.481 174.884 280.443C114.061 267.209 110.568 172.839 44.1252 192.811C1.01638 205.769 -55.5955 276.222 -55.5955 276.222" stroke="#BE99FF" stroke-dasharray="2 4 6 8"/>
<path d="M393.654 229.951C393.654 229.951 253.19 297.481 174.884 280.443C114.061 267.209 110.568 172.839 44.1252 192.811C1.01638 205.769 -55.5955 276.222 -55.5955 276.222" stroke="#BE99FF" stroke-dasharray="2 4 6 8"/>
<path d="M413.924 190.651C413.924 190.651 273.46 258.18 195.154 241.143C134.331 227.909 130.838 133.538 64.3952 153.511C21.2864 166.469 -35.3255 236.921 -35.3255 236.921" stroke="#B2C9FF" stroke-dasharray="2 4 6 8"/>
<path d="M422.737 173.564C422.737 173.564 282.273 241.094 203.967 224.056C143.144 210.822 139.651 116.452 73.2081 136.424C30.0993 149.382 -26.5126 219.834 -26.5126 219.834" stroke="#B2C9FF" stroke-dasharray="2 4 6 8"/>
<path d="M420.093 178.69C420.093 178.69 279.629 246.22 201.323 229.182C140.5 215.948 137.007 121.578 70.5641 141.55C27.4553 154.508 -29.1566 224.961 -29.1566 224.961" stroke="#B2C9FF" stroke-dasharray="2 4 6 8"/>
<path d="M417.155 184.386C417.155 184.386 276.691 251.915 198.386 234.877C137.562 221.643 134.069 127.273 67.6265 147.245C24.5177 160.204 -32.0942 230.656 -32.0942 230.656" stroke="#B2C9FF" stroke-dasharray="2 4 6 8"/>
<path d="M401.585 214.573C401.585 214.573 261.122 282.103 182.816 265.065C121.993 251.831 118.5 157.461 52.0568 177.433C8.94799 190.391 -47.6639 260.843 -47.6639 260.843" stroke="#BE99FF" stroke-dasharray="2 4 6 8"/>
<path d="M410.398 197.486C410.398 197.486 269.935 265.016 191.629 247.978C130.806 234.744 127.313 140.374 60.8698 160.346C17.761 173.304 -38.8509 243.756 -38.8509 243.756" stroke="#BE99FF" stroke-dasharray="2 4 6 8"/>
<path d="M407.754 202.612C407.754 202.612 267.291 270.142 188.985 253.104C128.162 239.87 124.669 145.5 58.2259 165.472C15.1171 178.43 -41.4948 248.882 -41.4948 248.882" stroke="#BE99FF" stroke-dasharray="2 4 6 8"/>
<path d="M404.817 208.308C404.817 208.308 264.353 275.837 186.047 258.8C125.224 245.566 121.731 151.195 55.2883 171.168C12.1794 184.126 -44.4324 254.578 -44.4324 254.578" stroke="#BE99FF" stroke-dasharray="2 4 6 8"/>
</svg>
