<svg width="360" height="254" viewBox="0 0 360 254" fill="none" xmlns="http://www.w3.org/2000/svg">
<path d="M-5.84537 180.88C-5.84537 180.88 127.019 133.175 209.512 152.867C273.587 168.162 291.687 248.275 356.379 235.842C398.352 227.776 445.241 171.953 445.241 171.953" stroke="#BE99FF" stroke-dasharray="2 4 6 8"/>
<path d="M-12.2021 194.75C-12.2021 194.75 120.662 147.045 203.155 166.737C267.231 182.032 285.33 262.145 350.022 249.712C391.995 241.645 438.884 185.823 438.884 185.823" stroke="#BE99FF" stroke-dasharray="2 4 6 8"/>
<path d="M-10.2951 190.589C-10.2951 190.589 122.569 142.884 205.062 162.576C269.138 177.871 287.237 257.984 351.929 245.551C393.902 237.484 440.791 181.662 440.791 181.662" stroke="#BE99FF" stroke-dasharray="2 4 6 8"/>
<path d="M-8.17618 185.966C-8.17618 185.966 124.688 138.261 207.181 157.953C271.257 173.248 289.356 253.361 354.048 240.928C396.021 232.861 442.91 177.039 442.91 177.039" stroke="#BE99FF" stroke-dasharray="2 4 6 8"/>
<path d="M-22.7967 217.867C-22.7967 217.867 110.067 170.162 192.56 189.853C256.636 205.149 274.736 285.262 339.428 272.829C381.401 264.762 428.29 208.939 428.29 208.939" stroke="#BE99FF" stroke-dasharray="2 4 6 8"/>
<path d="M-29.1534 231.737C-29.1534 231.737 103.711 184.031 186.204 203.723C250.279 219.019 268.379 299.132 333.071 286.699C375.044 278.632 421.933 222.809 421.933 222.809" stroke="#BE99FF" stroke-dasharray="2 4 6 8"/>
<path d="M-27.2464 227.576C-27.2464 227.576 105.618 179.871 188.111 199.562C252.186 214.858 270.286 294.971 334.978 282.538C376.951 274.471 423.84 218.648 423.84 218.648" stroke="#BE99FF" stroke-dasharray="2 4 6 8"/>
<path d="M-25.1275 222.952C-25.1275 222.952 107.737 175.247 190.23 194.939C254.305 210.234 272.405 290.347 337.097 277.914C379.07 269.847 425.959 214.025 425.959 214.025" stroke="#BE99FF" stroke-dasharray="2 4 6 8"/>
<path d="M-32.7829 234.908C-32.7829 234.908 100.081 187.203 182.574 206.895C246.65 222.19 264.75 302.303 329.442 289.87C371.415 281.804 418.304 225.981 418.304 225.981" stroke="#BE99FF" stroke-dasharray="2 4 6 8"/>
<path d="M-39.1396 248.778C-39.1396 248.778 93.7245 201.073 176.218 220.765C240.293 236.06 258.393 316.173 323.085 303.74C365.058 295.673 411.947 239.851 411.947 239.851" stroke="#B2C9FF" stroke-dasharray="2 4 6 8"/>
<path d="M-37.2325 244.617C-37.2325 244.617 95.6316 196.912 178.125 216.604C242.2 231.9 260.3 312.013 324.992 299.579C366.965 291.513 413.854 235.69 413.854 235.69" stroke="#B2C9FF" stroke-dasharray="2 4 6 8"/>
<path d="M-35.1137 239.994C-35.1137 239.994 97.7505 192.289 180.243 211.98C244.319 227.276 262.419 307.389 327.111 294.956C369.084 286.889 415.973 231.066 415.973 231.066" stroke="#B2C9FF" stroke-dasharray="2 4 6 8"/>
<path d="M-41.6408 253.365C-41.6408 253.365 91.2233 205.66 173.716 225.352C237.792 240.647 255.892 320.76 320.584 308.327C362.557 300.26 409.446 244.437 409.446 244.437" stroke="#B2C9FF" stroke-dasharray="2 4 6 8"/>
<path d="M-47.9975 267.235C-47.9975 267.235 84.8666 219.53 167.36 239.222C231.435 254.517 249.535 334.63 314.227 322.197C356.2 314.13 403.089 258.308 403.089 258.308" stroke="#B2C9FF" stroke-dasharray="2 4 6 8"/>
<path d="M-46.0905 263.074C-46.0905 263.074 86.7736 215.369 169.267 235.061C233.342 250.356 251.442 330.469 316.134 318.036C358.107 309.969 404.996 254.147 404.996 254.147" stroke="#B2C9FF" stroke-dasharray="2 4 6 8"/>
<path d="M-43.9716 258.451C-43.9716 258.451 88.8925 210.745 171.386 230.437C235.461 245.733 253.561 325.846 318.253 313.413C360.226 305.346 407.115 249.523 407.115 249.523" stroke="#B2C9FF" stroke-dasharray="2 4 6 8"/>
<path d="M-51.7077 271.355C-51.7077 271.355 81.1565 223.65 163.649 243.342C227.725 258.637 245.825 338.751 310.517 326.317C352.49 318.251 399.379 262.428 399.379 262.428" stroke="#B2C9FF" stroke-dasharray="2 4 6 8"/>
<path d="M-58.0644 285.225C-58.0644 285.225 74.7997 237.52 157.293 257.212C221.368 272.507 239.468 352.62 304.16 340.187C346.133 332.121 393.022 276.298 393.022 276.298" stroke="#B2C9FF" stroke-dasharray="2 4 6 8"/>
<path d="M-56.1574 281.064C-56.1574 281.064 76.7067 233.359 159.2 253.051C223.275 268.346 241.375 348.459 306.067 336.026C348.04 327.96 394.929 272.137 394.929 272.137" stroke="#B2C9FF" stroke-dasharray="2 4 6 8"/>
<path d="M-54.0385 276.441C-54.0385 276.441 78.8256 228.736 161.319 248.428C225.394 263.723 243.494 343.836 308.186 331.403C350.159 323.336 397.048 267.513 397.048 267.513" stroke="#B2C9FF" stroke-dasharray="2 4 6 8"/>
<path d="M-13.8973 198.449C-13.8973 198.449 118.967 150.744 201.46 170.435C265.536 185.731 283.635 265.844 348.327 253.411C390.3 245.344 437.189 189.521 437.189 189.521" stroke="#BE99FF" stroke-dasharray="2 4 6 8"/>
<path d="M-20.254 212.319C-20.254 212.319 112.61 164.614 195.103 184.305C259.179 199.601 277.279 279.714 341.971 267.281C383.944 259.214 430.832 203.391 430.832 203.391" stroke="#BE99FF" stroke-dasharray="2 4 6 8"/>
<path d="M-18.347 208.158C-18.347 208.158 114.517 160.452 197.01 180.144C261.086 195.44 279.186 275.553 343.878 263.12C385.85 255.053 432.739 199.23 432.739 199.23" stroke="#BE99FF" stroke-dasharray="2 4 6 8"/>
<path d="M-16.228 203.535C-16.228 203.535 116.636 155.829 199.129 175.521C263.205 190.817 281.304 270.93 345.996 258.497C387.969 250.43 434.858 194.607 434.858 194.607" stroke="#BE99FF" stroke-dasharray="2 4 6 8"/>
</svg>
