<svg width="360" height="215" viewBox="0 0 360 215" fill="none" xmlns="http://www.w3.org/2000/svg">
<path d="M-53.7121 284.58C-53.7121 284.58 40.5564 158.933 129.266 126.744C198.17 101.742 264.02 165.11 316.526 113.963C350.593 80.7788 360 0.207904 360 0.207904" stroke="#BE99FF" stroke-dasharray="2 4 6 8"/>
<path d="M-51.1305 301.359C-51.1305 301.359 43.1379 175.713 131.847 143.524C200.751 118.521 266.602 181.889 319.108 130.743C353.175 97.558 362.582 16.9871 362.582 16.9871" stroke="#BE99FF" stroke-dasharray="2 4 6 8"/>
<path d="M-51.9049 296.325C-51.9049 296.325 42.3636 170.679 131.073 138.49C199.977 113.487 265.827 176.855 318.334 125.709C352.4 92.5242 361.807 11.9533 361.807 11.9533" stroke="#BE99FF" stroke-dasharray="2 4 6 8"/>
<path d="M-52.7654 290.732C-52.7654 290.732 41.503 165.086 130.212 132.897C199.116 107.894 264.967 171.263 317.473 120.116C351.54 86.9313 360.947 6.36037 360.947 6.36037" stroke="#BE99FF" stroke-dasharray="2 4 6 8"/>
<path d="M-46.8276 329.324C-46.8276 329.324 47.4408 203.678 136.15 171.489C205.054 146.486 270.905 209.855 323.411 158.708C357.477 125.523 366.885 44.9524 366.885 44.9524" stroke="#BE99FF" stroke-dasharray="2 4 6 8"/>
<path d="M-44.2459 346.104C-44.2459 346.104 50.0225 220.457 138.732 188.268C207.636 163.266 273.486 226.634 325.993 175.487C360.059 142.303 369.466 61.7317 369.466 61.7317" stroke="#BE99FF" stroke-dasharray="2 4 6 8"/>
<path d="M-45.0204 341.07C-45.0204 341.07 49.248 215.423 137.957 183.234C206.861 158.232 272.712 221.6 325.218 170.453C359.285 137.269 368.692 56.6979 368.692 56.6979" stroke="#BE99FF" stroke-dasharray="2 4 6 8"/>
<path d="M-45.8811 335.477C-45.8811 335.477 48.3873 209.83 137.097 177.641C206.001 152.639 271.851 216.007 324.357 164.86C358.424 131.676 367.831 51.1048 367.831 51.1048" stroke="#BE99FF" stroke-dasharray="2 4 6 8"/>
<path d="M-45.6774 351.272C-45.6774 351.272 48.591 225.626 137.3 193.437C206.204 168.434 272.055 231.803 324.561 180.656C358.628 147.471 368.035 66.9003 368.035 66.9003" stroke="#BE99FF" stroke-dasharray="2 4 6 8"/>
<path d="M-43.0959 368.051C-43.0959 368.051 51.1726 242.405 139.882 210.216C208.786 185.213 274.636 248.582 327.143 197.435C361.209 164.25 370.616 83.6793 370.616 83.6793" stroke="#B2C9FF" stroke-dasharray="2 4 6 8"/>
<path d="M-43.8702 363.018C-43.8702 363.018 50.3983 237.371 139.107 205.182C208.012 180.18 273.862 243.548 326.368 192.401C360.435 159.217 369.842 78.6459 369.842 78.6459" stroke="#B2C9FF" stroke-dasharray="2 4 6 8"/>
<path d="M-44.731 357.425C-44.731 357.425 49.5375 231.778 138.247 199.589C207.151 174.587 273.001 237.955 325.507 186.808C359.574 153.624 368.981 73.0526 368.981 73.0526" stroke="#B2C9FF" stroke-dasharray="2 4 6 8"/>
<path d="M-42.6129 373.845C-42.6129 373.845 51.6555 248.198 140.365 216.009C209.269 191.007 275.119 254.375 327.626 203.228C361.692 170.043 371.099 89.4726 371.099 89.4726" stroke="#B2C9FF" stroke-dasharray="2 4 6 8"/>
<path d="M-40.0311 390.624C-40.0311 390.624 54.2373 264.977 142.947 232.788C211.851 207.786 277.701 271.154 330.207 220.007C364.274 186.823 373.681 106.252 373.681 106.252" stroke="#B2C9FF" stroke-dasharray="2 4 6 8"/>
<path d="M-40.8057 385.59C-40.8057 385.59 53.4628 259.943 142.172 227.755C211.076 202.752 276.927 266.12 329.433 214.974C363.499 181.789 372.907 101.218 372.907 101.218" stroke="#B2C9FF" stroke-dasharray="2 4 6 8"/>
<path d="M-41.6662 379.997C-41.6662 379.997 52.6022 254.35 141.311 222.161C210.215 197.159 276.066 260.527 328.572 209.381C362.639 176.196 372.046 95.625 372.046 95.625" stroke="#B2C9FF" stroke-dasharray="2 4 6 8"/>
<path d="M-40.957 396.724C-40.957 396.724 53.3114 271.077 142.021 238.888C210.925 213.886 276.775 277.254 329.281 226.107C363.348 192.922 372.755 112.352 372.755 112.352" stroke="#B2C9FF" stroke-dasharray="2 4 6 8"/>
<path d="M-38.3753 413.503C-38.3753 413.503 55.8931 287.856 144.602 255.667C213.506 230.665 279.357 294.033 331.863 242.886C365.93 209.702 375.337 129.131 375.337 129.131" stroke="#B2C9FF" stroke-dasharray="2 4 6 8"/>
<path d="M-39.1499 408.469C-39.1499 408.469 55.1186 282.822 143.828 250.633C212.732 225.631 278.582 288.999 331.089 237.852C365.155 204.668 374.562 124.097 374.562 124.097" stroke="#B2C9FF" stroke-dasharray="2 4 6 8"/>
<path d="M-40.0105 402.876C-40.0105 402.876 54.2579 277.229 142.967 245.04C211.871 220.038 277.722 283.406 330.228 232.259C364.295 199.075 373.702 118.504 373.702 118.504" stroke="#B2C9FF" stroke-dasharray="2 4 6 8"/>
<path d="M-50.4421 305.833C-50.4421 305.833 43.8264 180.187 132.536 147.998C201.44 122.995 267.29 186.364 319.796 135.217C353.863 102.032 363.27 21.4614 363.27 21.4614" stroke="#BE99FF" stroke-dasharray="2 4 6 8"/>
<path d="M-47.8603 322.613C-47.8603 322.613 46.4082 196.966 135.117 164.777C204.021 139.775 269.872 203.143 322.378 151.996C356.445 118.812 365.852 38.2407 365.852 38.2407" stroke="#BE99FF" stroke-dasharray="2 4 6 8"/>
<path d="M-48.6349 317.579C-48.6349 317.579 45.6336 191.932 134.343 159.743C203.247 134.741 269.097 198.109 321.604 146.962C355.67 113.778 365.077 33.2068 365.077 33.2068" stroke="#BE99FF" stroke-dasharray="2 4 6 8"/>
<path d="M-49.4953 311.986C-49.4953 311.986 44.7731 186.339 133.482 154.15C202.386 129.148 268.237 192.516 320.743 141.37C354.81 108.185 364.217 27.614 364.217 27.614" stroke="#BE99FF" stroke-dasharray="2 4 6 8"/>
</svg>
