<svg width="50" height="49" viewBox="0 0 50 49" fill="none" xmlns="http://www.w3.org/2000/svg">
<path d="M2.08331 36.75C2.39581 33.109 3.53297 29.7572 5.49477 26.6947C7.45658 23.6322 10.0694 21.1993 13.3333 19.3958L9.47915 12.8625C9.27081 12.5562 9.21873 12.2329 9.3229 11.8927C9.42706 11.5524 9.65276 11.2972 9.99998 11.127C10.2778 10.9569 10.5903 10.9229 10.9375 11.025C11.2847 11.127 11.5625 11.3312 11.7708 11.6375L15.625 18.1708C18.6111 16.9458 21.7361 16.3333 25 16.3333C28.2639 16.3333 31.3889 16.9458 34.375 18.1708L38.2291 11.6375C38.4375 11.3312 38.7153 11.127 39.0625 11.025C39.4097 10.9229 39.7222 10.9569 40 11.127C40.3472 11.2972 40.5729 11.5524 40.6771 11.8927C40.7812 12.2329 40.7291 12.5562 40.5208 12.8625L36.6666 19.3958C39.9305 21.1993 42.5434 23.6322 44.5052 26.6947C46.467 29.7572 47.6041 33.109 47.9166 36.75H2.08331ZM14.5833 31.1354C15.3125 31.1354 15.9288 30.8887 16.4323 30.3953C16.9357 29.9019 17.1875 29.2979 17.1875 28.5833C17.1875 27.8687 16.9357 27.2647 16.4323 26.7713C15.9288 26.2779 15.3125 26.0312 14.5833 26.0312C13.8541 26.0312 13.2378 26.2779 12.7344 26.7713C12.2309 27.2647 11.9791 27.8687 11.9791 28.5833C11.9791 29.2979 12.2309 29.9019 12.7344 30.3953C13.2378 30.8887 13.8541 31.1354 14.5833 31.1354ZM35.4166 31.1354C36.1458 31.1354 36.7621 30.8887 37.2656 30.3953C37.7691 29.9019 38.0208 29.2979 38.0208 28.5833C38.0208 27.8687 37.7691 27.2647 37.2656 26.7713C36.7621 26.2779 36.1458 26.0312 35.4166 26.0312C34.6875 26.0312 34.0712 26.2779 33.5677 26.7713C33.0642 27.2647 32.8125 27.8687 32.8125 28.5833C32.8125 29.2979 33.0642 29.9019 33.5677 30.3953C34.0712 30.8887 34.6875 31.1354 35.4166 31.1354Z" fill="#9D71E8"/>
</svg>
