<?xml version="1.0" encoding="UTF-8" standalone="no" ?>
<!DOCTYPE svg PUBLIC "-//W3C//DTD SVG 1.1//EN" "http://www.w3.org/Graphics/SVG/1.1/DTD/svg11.dtd">
<svg xmlns="http://www.w3.org/2000/svg" xmlns:xlink="http://www.w3.org/1999/xlink" version="1.1" width="1080" height="1080" viewBox="0 0 1080 1080" xml:space="preserve">
<desc>Created with Fabric.js 5.2.4</desc>
<defs>
</defs>
<rect x="0" y="0" width="100%" height="100%" fill="transparent"></rect>
<g transform="matrix(1 0 0 1 540 540)" id="0c9763b0-4b6f-4dec-8090-f61a8b2324d5"  >
<rect style="stroke: none; stroke-width: 1; stroke-dasharray: none; stroke-linecap: butt; stroke-dashoffset: 0; stroke-linejoin: miter; stroke-miterlimit: 4; fill: rgb(255,255,255); fill-rule: nonzero; opacity: 1; visibility: hidden;" vector-effect="non-scaling-stroke"  x="-540" y="-540" rx="0" ry="0" width="1080" height="1080" />
</g>
<g transform="matrix(1 0 0 1 540 540)" id="9c81018f-1a2c-41e2-ad69-ab62a6520fcb"  >
</g>
<g transform="matrix(67.5 0 0 67.5 540 540)"  >
<path style="stroke: none; stroke-width: 1; stroke-dasharray: none; stroke-linecap: butt; stroke-dashoffset: 0; stroke-linejoin: miter; stroke-miterlimit: 4; fill: rgb(255,255,255); fill-rule: evenodd; opacity: 1;"  transform=" translate(-8, -8)" d="M 8 1 C 8.276142374915397 1 8.5 1.2238576250846032 8.5 1.5 L 8.5 13.293 L 11.646 10.145999999999999 C 11.841508801440101 9.950491198559899 12.1584911985599 9.950491198559899 12.354000000000001 10.145999999999999 C 12.549508801440101 10.3415088014401 12.549508801440101 10.658491198559899 12.354000000000001 10.854 L 8.354000000000001 14.854 C 8.260195736989834 14.948041700687634 8.132827260858242 15.000893783685418 8 15.000893783685418 C 7.867172739141759 15.000893783685418 7.739804263010168 14.948041700687634 7.646000000000001 14.854 L 3.646000000000001 10.854 C 3.4504911985599 10.658491198559899 3.4504911985599 10.3415088014401 3.646000000000001 10.145999999999999 C 3.8415088014401015 9.950491198559899 4.1584911985599 9.950491198559899 4.354000000000001 10.145999999999999 L 7.5 13.293 L 7.5 1.5 C 7.5 1.2238576250846034 7.723857625084603 1 8 1 z" stroke-linecap="round" />
</g>
</svg>