<svg width="116" height="103" viewBox="0 0 116 103" fill="none" xmlns="http://www.w3.org/2000/svg">
<g clip-path="url(#clip0_117_13)">
<path d="M47.2657 9.06366L39.6733 11.8779C39.0691 12.0974 38.6664 12.6763 38.6664 13.3149C38.6664 13.9536 39.0691 14.5324 39.6733 14.752L47.2657 17.5662L50.1052 25.0908C50.3268 25.6896 50.9108 26.0888 51.5552 26.0888C52.1997 26.0888 52.7837 25.6896 53.0052 25.0908L55.8448 17.5662L63.4372 14.752C64.0414 14.5324 64.4441 13.9536 64.4441 13.3149C64.4441 12.6763 64.0414 12.0974 63.4372 11.8779L55.8448 9.06366L53.0052 1.53909C52.7837 0.940319 52.1997 0.541138 51.5552 0.541138C50.9108 0.541138 50.3268 0.940319 50.1052 1.53909L47.2657 9.06366ZM9.28372 79.4593C5.51775 83.1917 5.51775 89.2592 9.28372 93.0115L16.2518 99.9174C20.0177 103.65 26.14 103.65 29.9261 99.9174L106.716 23.7935C110.482 20.0611 110.482 13.9936 106.716 10.2412L99.7476 3.35537C95.9816 -0.37698 89.8594 -0.37698 86.0733 3.35537L9.28372 79.4593ZM97.5928 17.0273L76.4469 37.9844L71.7545 33.3339L92.9004 12.3769L97.5928 17.0273ZM1.51011 23.9332C0.603861 24.2725 -0.000305176 25.1307 -0.000305176 26.0888C-0.000305176 27.0468 0.603861 27.905 1.51011 28.2443L12.8886 32.4757L17.158 43.7525C17.5004 44.6507 18.3664 45.2495 19.333 45.2495C20.2997 45.2495 21.1657 44.6507 21.508 43.7525L25.7775 32.4757L37.1559 28.2443C38.0622 27.905 38.6664 27.0468 38.6664 26.0888C38.6664 25.1307 38.0622 24.2725 37.1559 23.9332L25.7775 19.7019L21.508 8.42497C21.1657 7.52681 20.2997 6.92804 19.333 6.92804C18.3664 6.92804 17.5004 7.52681 17.158 8.42497L12.8886 19.7019L1.51011 23.9332ZM72.399 75.0284C71.4927 75.3677 70.8886 76.226 70.8886 77.184C70.8886 78.142 71.4927 79.0003 72.399 79.3396L83.7775 83.5709L88.0469 94.8478C88.3893 95.7459 89.2552 96.3447 90.2219 96.3447C91.1886 96.3447 92.0546 95.7459 92.3969 94.8478L96.6664 83.5709L108.045 79.3396C108.951 79.0003 109.555 78.142 109.555 77.184C109.555 76.226 108.951 75.3677 108.045 75.0284L96.6664 70.7971L92.3969 59.5202C92.0546 58.622 91.1886 58.0233 90.2219 58.0233C89.2552 58.0233 88.3893 58.622 88.0469 59.5202L83.7775 70.7971L72.399 75.0284Z" fill="#9D71E8"/>
</g>
<defs>
<clipPath id="clip0_117_13">
<rect x="-0.000305176" y="0.541138" width="116" height="102.19" rx="12" fill="white"/>
</clipPath>
</defs>
</svg>
