<svg width="39" height="39" viewBox="0 0 39 39" fill="none" xmlns="http://www.w3.org/2000/svg">
<path d="M14.3 17.7938L17.7937 14.2594L15.5187 11.9438L14.8687 12.5938C14.5708 12.8917 14.1984 13.0474 13.7516 13.061C13.3047 13.0745 12.9187 12.9188 12.5938 12.5938C12.2687 12.2688 12.1062 11.8829 12.1062 11.436C12.1062 10.9891 12.2687 10.6032 12.5938 10.2782L13.2031 9.66879L11.375 7.84067L7.84062 11.375L14.3 17.7938ZM27.625 31.1594L31.1594 27.625L29.3312 25.7969L28.6812 26.4063C28.3562 26.7313 27.9771 26.8938 27.5437 26.8938C27.1104 26.8938 26.7312 26.7313 26.4062 26.4063C26.0812 26.0813 25.9187 25.7021 25.9187 25.2688C25.9187 24.8355 26.0812 24.4563 26.4062 24.1313L27.0156 23.4813L24.7 21.2063L21.2062 24.7L27.625 31.1594ZM6.5 34.125C6.03958 34.125 5.65365 33.9693 5.34219 33.6579C5.03073 33.3464 4.875 32.9605 4.875 32.5V27.9094C4.875 27.6928 4.91562 27.4829 4.99687 27.2797C5.07812 27.0766 5.2 26.8938 5.3625 26.7313L11.9844 20.1094L4.95625 13.0813C4.49583 12.6209 4.26562 12.0521 4.26562 11.375C4.26562 10.698 4.49583 10.1292 4.95625 9.66879L9.66875 4.95629C10.1292 4.49588 10.6979 4.27244 11.375 4.28598C12.0521 4.29952 12.6208 4.5365 13.0812 4.99692L20.15 12.025L26.2844 5.85004C26.6094 5.52504 26.975 5.28129 27.3812 5.11879C27.7875 4.95629 28.2073 4.87504 28.6406 4.87504C29.074 4.87504 29.4937 4.95629 29.9 5.11879C30.3062 5.28129 30.6719 5.52504 30.9969 5.85004L33.15 8.04379C33.475 8.36879 33.7187 8.73442 33.8812 9.14067C34.0437 9.54692 34.125 9.96671 34.125 10.4C34.125 10.8334 34.0437 11.2464 33.8812 11.6391C33.7187 12.0318 33.475 12.3907 33.15 12.7157L27.0156 18.8907L34.0437 25.9188C34.5042 26.3792 34.7344 26.948 34.7344 27.625C34.7344 28.3021 34.5042 28.8709 34.0437 29.3313L29.3312 34.0438C28.8708 34.5042 28.3021 34.7344 27.625 34.7344C26.9479 34.7344 26.3792 34.5042 25.9187 34.0438L18.8906 27.0157L12.2687 33.6375C12.1062 33.8 11.9234 33.9219 11.7203 34.0032C11.5172 34.0844 11.3073 34.125 11.0906 34.125H6.5ZM8.125 30.875H10.4L26.325 14.9907L24.0094 12.675L8.125 28.6V30.875ZM25.1875 13.8532L24.0094 12.675L26.325 14.9907L25.1875 13.8532Z" fill="#7A81C7"/>
</svg>
