<svg width="39" height="39" viewBox="0 0 39 39" fill="none" xmlns="http://www.w3.org/2000/svg">
<path d="M19.5 19.5C17.7125 19.5 16.1823 18.8635 14.9094 17.5906C13.6365 16.3177 13 14.7875 13 13C13 11.2125 13.6365 9.68229 14.9094 8.40937C16.1823 7.13646 17.7125 6.5 19.5 6.5C21.2875 6.5 22.8177 7.13646 24.0906 8.40937C25.3635 9.68229 26 11.2125 26 13C26 14.7875 25.3635 16.3177 24.0906 17.5906C22.8177 18.8635 21.2875 19.5 19.5 19.5ZM6.5 29.25V27.95C6.5 27.0292 6.73698 26.1828 7.21094 25.4109C7.6849 24.6391 8.31458 24.05 9.1 23.6437C10.7792 22.8042 12.4854 22.1745 14.2187 21.7547C15.9521 21.3349 17.7125 21.125 19.5 21.125C21.2875 21.125 23.0479 21.3349 24.7812 21.7547C26.5146 22.1745 28.2208 22.8042 29.9 23.6437C30.6854 24.05 31.3151 24.6391 31.7891 25.4109C32.263 26.1828 32.5 27.0292 32.5 27.95V29.25C32.5 30.1437 32.1818 30.9089 31.5453 31.5453C30.9089 32.1818 30.1437 32.5 29.25 32.5H9.75C8.85625 32.5 8.09115 32.1818 7.45469 31.5453C6.81823 30.9089 6.5 30.1437 6.5 29.25ZM9.75 29.25H29.25V27.95C29.25 27.6521 29.1755 27.3812 29.0266 27.1375C28.8776 26.8937 28.6812 26.7042 28.4375 26.5687C26.975 25.8375 25.499 25.2891 24.0094 24.9234C22.5198 24.5578 21.0167 24.375 19.5 24.375C17.9833 24.375 16.4802 24.5578 14.9906 24.9234C13.501 25.2891 12.025 25.8375 10.5625 26.5687C10.3187 26.7042 10.1224 26.8937 9.97344 27.1375C9.82448 27.3812 9.75 27.6521 9.75 27.95V29.25ZM19.5 16.25C20.3937 16.25 21.1589 15.9318 21.7953 15.2953C22.4318 14.6589 22.75 13.8937 22.75 13C22.75 12.1062 22.4318 11.3411 21.7953 10.7047C21.1589 10.0682 20.3937 9.75 19.5 9.75C18.6062 9.75 17.8411 10.0682 17.2047 10.7047C16.5682 11.3411 16.25 12.1062 16.25 13C16.25 13.8937 16.5682 14.6589 17.2047 15.2953C17.8411 15.9318 18.6062 16.25 19.5 16.25Z" fill="#7A81C7"/>
</svg>
