<svg width="50" height="49" viewBox="0 0 50 49" fill="none" xmlns="http://www.w3.org/2000/svg">
<path d="M18.3333 22.3564L22.8125 17.9157L19.8958 15.0064L19.0625 15.823C18.6806 16.1973 18.2031 16.393 17.6302 16.41C17.0573 16.427 16.5625 16.2314 16.1458 15.823C15.7292 15.4147 15.5208 14.9298 15.5208 14.3683C15.5208 13.8069 15.7292 13.322 16.1458 12.9137L16.9271 12.148L14.5833 9.85115L10.0521 14.2918L18.3333 22.3564ZM35.4167 39.1491L39.9479 34.7084L37.6042 32.4116L36.7708 33.1772C36.3542 33.5855 35.8681 33.7897 35.3125 33.7897C34.7569 33.7897 34.2708 33.5855 33.8542 33.1772C33.4375 32.7689 33.2292 32.2925 33.2292 31.748C33.2292 31.2036 33.4375 30.7272 33.8542 30.3189L34.6354 29.5022L31.6667 26.6439L27.1875 31.0334L35.4167 39.1491ZM8.33333 42.8751C7.74306 42.8751 7.24826 42.6795 6.84896 42.2881C6.44965 41.8968 6.25 41.4119 6.25 40.8334V35.0657C6.25 34.7935 6.30208 34.5298 6.40625 34.2746C6.51042 34.0194 6.66667 33.7897 6.875 33.5855L15.3646 25.2657L6.35417 16.4355C5.76389 15.8571 5.46875 15.1425 5.46875 14.2918C5.46875 13.4411 5.76389 12.7265 6.35417 12.148L12.3958 6.22719C12.9861 5.64872 13.7153 5.36799 14.5833 5.38501C15.4514 5.40202 16.1806 5.69976 16.7708 6.27824L25.8333 15.1084L33.6979 7.35011C34.1146 6.94178 34.5833 6.63553 35.1042 6.43136C35.625 6.22719 36.1632 6.12511 36.7187 6.12511C37.2743 6.12511 37.8125 6.22719 38.3333 6.43136C38.8542 6.63553 39.3229 6.94178 39.7396 7.35011L42.5 10.1064C42.9167 10.5147 43.2292 10.9741 43.4375 11.4845C43.6458 11.9949 43.75 12.5223 43.75 13.0668C43.75 13.6112 43.6458 14.1301 43.4375 14.6235C43.2292 15.117 42.9167 15.5678 42.5 15.9762L34.6354 23.7345L43.6458 32.5647C44.2361 33.1432 44.5312 33.8577 44.5312 34.7084C44.5312 35.5591 44.2361 36.2737 43.6458 36.8522L37.6042 42.773C37.0139 43.3515 36.2847 43.6407 35.4167 43.6407C34.5486 43.6407 33.8194 43.3515 33.2292 42.773L24.2187 33.9428L15.7292 42.2626C15.5208 42.4668 15.2865 42.6199 15.026 42.722C14.7656 42.8241 14.4965 42.8751 14.2187 42.8751H8.33333ZM10.4167 38.7918H13.3333L33.75 18.8345L30.7812 15.9251L10.4167 35.9334V38.7918ZM32.2917 17.4053L30.7812 15.9251L33.75 18.8345L32.2917 17.4053Z" fill="#9D71E8"/>
</svg>
