<svg width="81" height="81" viewBox="0 0 81 81" fill="none" xmlns="http://www.w3.org/2000/svg">
<path d="M61.6849 27C62.856 29.0115 65.0093 30.375 67.5 30.375C69.2902 30.375 71.0071 29.6638 72.273 28.398C73.5388 27.1321 74.25 25.4152 74.25 23.625C74.25 21.8348 73.5388 20.1179 72.273 18.852C71.0071 17.5862 69.2902 16.875 67.5 16.875C65.0093 16.875 62.856 18.2385 61.6849 20.25H54V13.5C54 12.6049 53.6444 11.7464 53.0115 11.1135C52.3786 10.4806 51.5201 10.125 50.625 10.125H30.375C29.4799 10.125 28.6215 10.4806 27.9885 11.1135C27.3556 11.7464 27 12.6049 27 13.5V20.25H19.3151C18.144 18.2385 15.9908 16.875 13.5 16.875C11.7098 16.875 9.9929 17.5862 8.72703 18.852C7.46116 20.1179 6.75 21.8348 6.75 23.625C6.75 25.4152 7.46116 27.1321 8.72703 28.398C9.9929 29.6638 11.7098 30.375 13.5 30.375C15.9908 30.375 18.144 29.0115 19.3151 27H27V28.2454C17.3239 33.21 14.5733 42.3023 13.8071 47.25H10.125C9.22989 47.25 8.37145 47.6056 7.73851 48.2385C7.10558 48.8715 6.75 49.7299 6.75 50.625V64.125C6.75 65.0201 7.10558 65.8786 7.73851 66.5115C8.37145 67.1444 9.22989 67.5 10.125 67.5H23.625C24.5201 67.5 25.3786 67.1444 26.0115 66.5115C26.6444 65.8786 27 65.0201 27 64.125V50.625C27 49.7299 26.6444 48.8715 26.0115 48.2385C25.3786 47.6056 24.5201 47.25 23.625 47.25H20.6651C21.33 44.0134 23.0884 39.1297 27.702 35.7142C28.0042 36.1441 28.404 36.4961 28.8687 36.7413C29.3334 36.9866 29.8496 37.1181 30.375 37.125H50.625C51.1509 37.1188 51.6677 36.9872 52.1326 36.7413C52.5975 36.4954 52.997 36.1421 53.298 35.7109C57.9319 39.1298 59.6936 44.0066 60.3484 47.25H57.375C56.4799 47.25 55.6215 47.6056 54.9885 48.2385C54.3556 48.8715 54 49.7299 54 50.625V64.125C54 65.0201 54.3556 65.8786 54.9885 66.5115C55.6215 67.1444 56.4799 67.5 57.375 67.5H70.875C71.7701 67.5 72.6286 67.1444 73.2615 66.5115C73.8944 65.8786 74.25 65.0201 74.25 64.125V50.625C74.25 49.7299 73.8944 48.8715 73.2615 48.2385C72.6286 47.6056 71.7701 47.25 70.875 47.25H67.1895C66.4234 42.3023 63.6728 33.2066 54 28.242V27H61.6849ZM20.25 60.75H13.5V54H20.25V60.75ZM67.5 60.75H60.75V54H67.5V60.75ZM47.25 30.375H33.75V16.875H47.25V30.375Z" fill="#7F5AF0"/>
</svg>
