<svg width="94" height="24" viewBox="0 0 94 24" fill="none" xmlns="http://www.w3.org/2000/svg">
<path d="M21.4254 7.54592L15.8275 10.8353C15.9193 11.1424 15.9658 11.4616 15.9658 11.7826V11.7826C15.9658 12.6423 15.6302 13.4667 15.0328 14.0746C14.4355 14.6825 13.6253 15.024 12.7805 15.024V15.024C11.9359 15.0237 11.126 14.6821 10.5289 14.0742C9.93182 13.4664 9.59638 12.6421 9.59638 11.7826V11.7826C9.59638 10.9229 9.93196 10.0985 10.5293 9.49061C11.1267 8.88273 11.9368 8.54123 12.7816 8.54123V8.54123C13.3657 8.54013 13.9388 8.70338 14.4374 9.01296L20.3075 5.56358L18.071 1.6033H7.33608L1.33969 11.7826L7.21843 21.5255L18.1616 21.5691L23.8169 11.7826L21.4254 7.54592Z" fill="#7F5AF0"/>
<path d="M35.9632 10.404V12.96H28.0432V10.404H35.9632ZM46.259 18.126C45.335 18.126 44.507 17.976 43.775 17.676C43.043 17.376 42.455 16.932 42.011 16.344C41.579 15.756 41.351 15.048 41.327 14.22H44.603C44.651 14.688 44.813 15.048 45.089 15.3C45.365 15.54 45.725 15.66 46.169 15.66C46.625 15.66 46.985 15.558 47.249 15.354C47.513 15.138 47.645 14.844 47.645 14.472C47.645 14.16 47.537 13.902 47.321 13.698C47.117 13.494 46.859 13.326 46.547 13.194C46.247 13.062 45.815 12.912 45.251 12.744C44.435 12.492 43.769 12.24 43.253 11.988C42.737 11.736 42.293 11.364 41.921 10.872C41.549 10.38 41.363 9.738 41.363 8.946C41.363 7.77 41.789 6.852 42.641 6.192C43.493 5.52 44.603 5.184 45.971 5.184C47.363 5.184 48.485 5.52 49.337 6.192C50.189 6.852 50.645 7.776 50.705 8.964H47.375C47.351 8.556 47.201 8.238 46.925 8.01C46.649 7.77 46.295 7.65 45.863 7.65C45.491 7.65 45.191 7.752 44.963 7.956C44.735 8.148 44.621 8.43 44.621 8.802C44.621 9.21 44.813 9.528 45.197 9.756C45.581 9.984 46.181 10.23 46.997 10.494C47.813 10.77 48.473 11.034 48.977 11.286C49.493 11.538 49.937 11.904 50.309 12.384C50.681 12.864 50.867 13.482 50.867 14.238C50.867 14.958 50.681 15.612 50.309 16.2C49.949 16.788 49.421 17.256 48.725 17.604C48.029 17.952 47.207 18.126 46.259 18.126ZM69.7533 5.364L66.4593 18H62.7333L60.7173 9.684L58.6293 18H54.9033L51.6993 5.364H54.9933L56.8113 14.562L59.0613 5.364H62.4453L64.6053 14.562L66.4413 5.364H69.7533ZM78.7669 15.768H74.0509L73.2949 18H70.0729L74.6449 5.364H78.2089L82.7809 18H79.5229L78.7669 15.768ZM77.9749 13.392L76.4089 8.766L74.8609 13.392H77.9749ZM93.4064 9.432C93.4064 10.164 93.2384 10.836 92.9024 11.448C92.5664 12.048 92.0504 12.534 91.3544 12.906C90.6584 13.278 89.7944 13.464 88.7624 13.464H86.8544V18H83.7764V5.364H88.7624C89.7704 5.364 90.6224 5.538 91.3184 5.886C92.0144 6.234 92.5364 6.714 92.8844 7.326C93.2324 7.938 93.4064 8.64 93.4064 9.432ZM88.5284 11.016C89.1164 11.016 89.5544 10.878 89.8424 10.602C90.1304 10.326 90.2744 9.936 90.2744 9.432C90.2744 8.928 90.1304 8.538 89.8424 8.262C89.5544 7.986 89.1164 7.848 88.5284 7.848H86.8544V11.016H88.5284Z" fill="#94A1B2"/>
</svg>
