<svg xmlns="http://www.w3.org/2000/svg" xmlns:xlink="http://www.w3.org/1999/xlink" viewBox="0 0 2588.43 1558.86"><defs><style>.cls-1{fill:none;}.cls-2{clip-path:url(#clip-path);}.cls-3{fill:#94a1b2;}.cls-4{opacity:0.5;}.cls-5{opacity:0.43;}.cls-6{fill:url(#Nueva_muestra_de_motivo_1);}</style><clipPath id="clip-path"><rect class="cls-1" width="300" height="300"/></clipPath><pattern id="Nueva_muestra_de_motivo_1" data-name="Nueva muestra de motivo 1" width="300" height="300" patternTransform="matrix(1, 0, 0, -1, 159, 960)" patternUnits="userSpaceOnUse" viewBox="0 0 300 300"><rect class="cls-1" width="300" height="300"/><g class="cls-2"><path class="cls-3" d="M239.85,9.94V8.7c9.68-5,12.43-14.06,13.19-19h3.69a3.38,3.38,0,0,0,3.37-3.37v-13.5a3.35,3.35,0,0,0-1-2.39,3.39,3.39,0,0,0-2.38-1h-13.5a3.38,3.38,0,0,0-3.38,3.38h0v13.5a3.39,3.39,0,0,0,1,2.38,3.35,3.35,0,0,0,2.39,1h3a18.79,18.79,0,0,1-7,11.54,3.38,3.38,0,0,0-1.16-1,3.16,3.16,0,0,0-1.51-.38H216.23a3.31,3.31,0,0,0-1.51.38,3.38,3.38,0,0,0-1.16,1,18.88,18.88,0,0,1-7-11.54h3a3.38,3.38,0,0,0,3.37-3.37v-13.5a3.35,3.35,0,0,0-1-2.39,3.39,3.39,0,0,0-2.38-1H196a3.38,3.38,0,0,0-3.38,3.38h0v13.5a3.39,3.39,0,0,0,1,2.38,3.35,3.35,0,0,0,2.39,1h3.68c.77,5,3.52,14,13.19,19V9.94H205.2a6.76,6.76,0,1,0,0,6.75h7.68v6.75a3.38,3.38,0,0,0,3.38,3.38h20.25a3.39,3.39,0,0,0,2.38-1,3.35,3.35,0,0,0,1-2.39V16.68h7.69a6.74,6.74,0,1,0,5.85-10.12h0a6.7,6.7,0,0,0-5.81,3.37Zm-33.75-27h-6.75v-6.75h6.75Zm47.25,0H246.6v-6.75h6.75ZM233.1,20.07H219.6V6.57h13.5Z"/><path class="cls-3" d="M289.68,80.65,271.45,62.42l18.23-18.23-6-6L259.44,62.43l24.24,24.23Zm19.48-36.46,18.23,18.23L309.16,80.65l6,6L339.4,62.42,315.16,38.18Z"/><path class="cls-3" d="M89.85,9.94V8.7c9.68-5,12.43-14.06,13.19-19h3.69a3.38,3.38,0,0,0,3.37-3.37v-13.5a3.35,3.35,0,0,0-1-2.39,3.39,3.39,0,0,0-2.38-1H93.23a3.38,3.38,0,0,0-3.38,3.38h0v13.5a3.39,3.39,0,0,0,1,2.38,3.35,3.35,0,0,0,2.39,1h3a18.79,18.79,0,0,1-7,11.54,3.38,3.38,0,0,0-1.16-1,3.16,3.16,0,0,0-1.51-.38H66.23a3.31,3.31,0,0,0-1.51.38,3.38,3.38,0,0,0-1.16,1,18.88,18.88,0,0,1-7-11.54h3a3.38,3.38,0,0,0,3.37-3.37v-13.5a3.35,3.35,0,0,0-1-2.39,3.39,3.39,0,0,0-2.38-1H46a3.38,3.38,0,0,0-3.38,3.38h0v13.5a3.39,3.39,0,0,0,1,2.38,3.35,3.35,0,0,0,2.39,1h3.68c.77,5,3.52,14,13.19,19V9.94H55.17a6.76,6.76,0,1,0,0,6.75h7.68v6.75a3.38,3.38,0,0,0,3.38,3.38H86.48a3.39,3.39,0,0,0,2.38-1,3.35,3.35,0,0,0,1-2.39V16.68h7.69A6.74,6.74,0,1,0,103.4,6.56h0a6.7,6.7,0,0,0-5.81,3.37Zm-33.75-27H49.35v-6.75H56.1Zm47.25,0H96.6v-6.75h6.75ZM83.1,20.07H69.6V6.57H83.1Z"/><path class="cls-3" d="M139.68,80.65,121.45,62.42l18.23-18.23-6-6L109.44,62.43l24.24,24.23Zm19.48-36.46,18.23,18.23L159.16,80.65l6,6L189.4,62.42,165.16,38.18Z"/><path class="cls-3" d="M-10.32,80.65-28.55,62.42l18.23-18.23-6-6L-40.56,62.43l24.24,24.23ZM9.16,44.19,27.39,62.42,9.16,80.65l6,6L39.4,62.42,15.16,38.18Z"/><path class="cls-3" d="M314.85,159.94V158.7c9.68-5,12.43-14.06,13.19-19h3.69a3.38,3.38,0,0,0,3.37-3.37v-13.5a3.35,3.35,0,0,0-1-2.39,3.39,3.39,0,0,0-2.38-1h-13.5a3.38,3.38,0,0,0-3.38,3.38h0v13.5a3.39,3.39,0,0,0,1,2.38,3.35,3.35,0,0,0,2.39,1h3a18.81,18.81,0,0,1-7.05,11.54,3.38,3.38,0,0,0-1.16-1,3.16,3.16,0,0,0-1.51-.38H291.23a3.31,3.31,0,0,0-1.51.38,3.38,3.38,0,0,0-1.16,1,18.88,18.88,0,0,1-7-11.54h3a3.38,3.38,0,0,0,3.37-3.37v-13.5a3.35,3.35,0,0,0-1-2.39,3.39,3.39,0,0,0-2.38-1H271a3.38,3.38,0,0,0-3.38,3.38h0v13.5a3.39,3.39,0,0,0,1,2.38,3.35,3.35,0,0,0,2.39,1h3.68c.77,5,3.52,14,13.19,19v1.24H280.2a6.76,6.76,0,1,0,0,6.75h7.68v6.75a3.38,3.38,0,0,0,3.38,3.38h20.25a3.39,3.39,0,0,0,2.38-1,3.35,3.35,0,0,0,1-2.39v-6.75h7.69a6.74,6.74,0,1,0,5.85-10.12h0a6.7,6.7,0,0,0-5.81,3.37Zm-33.75-27h-6.75v-6.75h6.75Zm47.25,0H321.6v-6.75h6.75ZM308.1,170.07H294.6v-13.5h13.5Z"/><path class="cls-3" d="M164.85,159.94V158.7c9.68-5,12.43-14.06,13.19-19h3.69a3.38,3.38,0,0,0,3.37-3.37v-13.5a3.35,3.35,0,0,0-1-2.39,3.39,3.39,0,0,0-2.38-1h-13.5a3.38,3.38,0,0,0-3.38,3.38h0v13.5a3.39,3.39,0,0,0,1,2.38,3.35,3.35,0,0,0,2.39,1h3a18.79,18.79,0,0,1-7,11.54,3.38,3.38,0,0,0-1.16-1,3.16,3.16,0,0,0-1.51-.38H141.23a3.31,3.31,0,0,0-1.51.38,3.38,3.38,0,0,0-1.16,1,18.88,18.88,0,0,1-7-11.54h3a3.38,3.38,0,0,0,3.37-3.37v-13.5a3.35,3.35,0,0,0-1-2.39,3.39,3.39,0,0,0-2.38-1H121a3.38,3.38,0,0,0-3.38,3.38h0v13.5a3.39,3.39,0,0,0,1,2.38,3.35,3.35,0,0,0,2.39,1h3.68c.77,5,3.52,14,13.19,19v1.24H130.2a6.76,6.76,0,1,0,0,6.75h7.68v6.75a3.38,3.38,0,0,0,3.38,3.38h20.25a3.39,3.39,0,0,0,2.38-1,3.35,3.35,0,0,0,1-2.39v-6.75h7.69a6.74,6.74,0,1,0,5.85-10.12h0a6.7,6.7,0,0,0-5.81,3.37Zm-33.75-27h-6.75v-6.75h6.75Zm47.25,0H171.6v-6.75h6.75ZM158.1,170.07H144.6v-13.5h13.5Z"/><path class="cls-3" d="M214.68,230.65l-18.23-18.23,18.23-18.23-6-6-24.24,24.23,24.24,24.23Zm19.48-36.46,18.23,18.23-18.23,18.23,6,6,24.24-24.23-24.24-24.24Z"/><path class="cls-3" d="M14.85,159.94V158.7c9.68-5,12.43-14.06,13.19-19h3.69a3.38,3.38,0,0,0,3.37-3.37v-13.5a3.35,3.35,0,0,0-1-2.39,3.39,3.39,0,0,0-2.38-1H18.23a3.38,3.38,0,0,0-3.38,3.38h0v13.5a3.39,3.39,0,0,0,1,2.38,3.35,3.35,0,0,0,2.39,1h3a18.79,18.79,0,0,1-7,11.54,3.38,3.38,0,0,0-1.16-1,3.16,3.16,0,0,0-1.51-.38H-8.77a3.31,3.31,0,0,0-1.51.38,3.38,3.38,0,0,0-1.16,1,18.88,18.88,0,0,1-7-11.54h3a3.33,3.33,0,0,0,2.38-1,3.33,3.33,0,0,0,1-2.38v-13.5a3.35,3.35,0,0,0-1-2.39,3.39,3.39,0,0,0-2.38-1H-29a3.35,3.35,0,0,0-2.39,1,3.35,3.35,0,0,0-1,2.39v13.5a3.39,3.39,0,0,0,1,2.38,3.35,3.35,0,0,0,2.39,1h3.68c.77,5,3.52,14,13.19,19v1.24h-7.68a6.73,6.73,0,0,0-5.82-3.37,6.78,6.78,0,0,0-4.77,2,6.74,6.74,0,0,0-2,4.78,6.78,6.78,0,0,0,2,4.77,6.78,6.78,0,0,0,4.77,2,6.76,6.76,0,0,0,5.82-3.38h7.68v6.75a3.35,3.35,0,0,0,1,2.39,3.35,3.35,0,0,0,2.39,1H11.48a3.39,3.39,0,0,0,2.38-1,3.35,3.35,0,0,0,1-2.39v-6.75h7.69a6.74,6.74,0,1,0,5.85-10.12h0A6.7,6.7,0,0,0,22.55,160Zm-33.75-27h-6.75v-6.75h6.75Zm47.25,0H21.6v-6.75h6.75ZM8.1,170.07H-5.4v-13.5H8.1Z"/><path class="cls-3" d="M64.68,230.65,46.45,212.42l18.23-18.23-6-6L34.44,212.42l24.24,24.23Zm19.48-36.46,18.23,18.23L84.16,230.65l6,6,24.24-24.23L90.16,188.18Z"/><path class="cls-3" d="M239.85,309.94V308.7c9.68-5,12.43-14.06,13.19-19h3.69a3.38,3.38,0,0,0,3.37-3.37v-13.5a3.35,3.35,0,0,0-1-2.39,3.39,3.39,0,0,0-2.38-1h-13.5a3.38,3.38,0,0,0-3.38,3.38h0v13.5a3.39,3.39,0,0,0,1,2.38,3.35,3.35,0,0,0,2.39,1h3a18.79,18.79,0,0,1-7,11.54,3.34,3.34,0,0,0-1.23-1,3.16,3.16,0,0,0-1.51-.38H216.23a3.31,3.31,0,0,0-1.51.38,3.38,3.38,0,0,0-1.16,1,18.88,18.88,0,0,1-7-11.54h3a3.38,3.38,0,0,0,3.37-3.37v-13.5a3.35,3.35,0,0,0-1-2.39,3.39,3.39,0,0,0-2.38-1H196a3.38,3.38,0,0,0-3.38,3.38h0v13.54a3.39,3.39,0,0,0,1,2.38,3.35,3.35,0,0,0,2.39,1h3.68c.77,4.95,3.52,14,13.19,19v1.24H205.2a6.78,6.78,0,1,0,0,6.8h7.68v6.75a3.41,3.41,0,0,0,3.39,3.39h20.25a3.39,3.39,0,0,0,2.38-1,3.35,3.35,0,0,0,1-2.39v-6.75h7.69a6.76,6.76,0,0,0,12.59-3.39,6.83,6.83,0,0,0-6.78-6.78,6.7,6.7,0,0,0-5.81,3.37Zm-33.75-27h-6.75v-6.75h6.75Zm47.25,0H246.6v-6.75h6.75ZM233.1,320.07H219.6v-13.5h13.5Z"/><path class="cls-3" d="M89.85,309.94V308.7c9.68-5,12.43-14.06,13.19-19h3.69a3.38,3.38,0,0,0,3.37-3.37v-13.5a3.35,3.35,0,0,0-1-2.39,3.39,3.39,0,0,0-2.38-1H93.23a3.38,3.38,0,0,0-3.38,3.38v13.5a3.39,3.39,0,0,0,1,2.38,3.35,3.35,0,0,0,2.39,1h3a18.79,18.79,0,0,1-7,11.54,3.38,3.38,0,0,0-1.24-1,3.16,3.16,0,0,0-1.51-.38H66.23a3.31,3.31,0,0,0-1.51.38,3.38,3.38,0,0,0-1.16,1,18.88,18.88,0,0,1-7-11.54h3a3.38,3.38,0,0,0,3.37-3.37v-13.5a3.35,3.35,0,0,0-1-2.39,3.39,3.39,0,0,0-2.38-1H46a3.38,3.38,0,0,0-3.38,3.38h0v13.54a3.39,3.39,0,0,0,1,2.38,3.35,3.35,0,0,0,2.39,1h3.68c.77,4.95,3.52,14,13.19,19v1.24H55.17a6.78,6.78,0,1,0,0,6.8h7.68v6.75a3.41,3.41,0,0,0,3.39,3.39H86.48a3.39,3.39,0,0,0,2.38-1,3.35,3.35,0,0,0,1-2.39v-6.75h7.69a6.76,6.76,0,0,0,12.59-3.39,6.83,6.83,0,0,0-6.78-6.78,6.7,6.7,0,0,0-5.81,3.37Zm-33.75-27H49.35v-6.75H56.1Zm47.25,0H96.6v-6.75h6.75ZM83.1,320.07H69.6v-13.5H83.1Z"/></g></pattern></defs><title>patronCswap</title><g id="Capa_2" data-name="Capa 2"><g id="Capa_1-2" data-name="Capa 1"><g id="Capa_2-2" data-name="Capa 2" class="cls-4"><g id="Capa_1-2-2" data-name="Capa 1-2" class="cls-5"><rect class="cls-6" width="2588.43" height="1558.86"/></g></g></g></g></svg>