<svg xmlns="http://www.w3.org/2000/svg" xmlns:xlink="http://www.w3.org/1999/xlink" viewBox="0 0 1080 1080"><defs><style>.cls-1{fill:none;}.cls-2{fill:#94a1b2;}.cls-3{fill:url(#Nueva_muestra_de_motivo_1);}</style><pattern id="Nueva_muestra_de_motivo_1" data-name="Nueva muestra de motivo 1" width="300" height="300" patternUnits="userSpaceOnUse" viewBox="0 0 300 300"><rect class="cls-1" width="300" height="300"/><path class="cls-2" d="M239.85,290.06v1.24c9.68,5,12.43,14.06,13.19,19h3.69a3.38,3.38,0,0,1,3.37,3.37v13.5a3.34,3.34,0,0,1-1,2.39,3.38,3.38,0,0,1-2.38,1h-13.5a3.38,3.38,0,0,1-3.38-3.38v-13.5a3.38,3.38,0,0,1,1-2.38,3.34,3.34,0,0,1,2.39-1h3a18.79,18.79,0,0,0-7-11.54,3.38,3.38,0,0,1-1.16,1,3.22,3.22,0,0,1-1.51.38H216.23a3.31,3.31,0,0,1-1.51-.38,3.38,3.38,0,0,1-1.16-1,18.89,18.89,0,0,0-7,11.54h3a3.38,3.38,0,0,1,3.37,3.37v13.5a3.34,3.34,0,0,1-1,2.39,3.38,3.38,0,0,1-2.38,1H196a3.38,3.38,0,0,1-3.38-3.38v-13.5a3.38,3.38,0,0,1,1-2.38,3.34,3.34,0,0,1,2.39-1h3.68c.77-4.95,3.52-14,13.19-19v-1.24h-7.68a6.76,6.76,0,1,1,0-6.75h7.68v-6.75a3.38,3.38,0,0,1,3.38-3.38h20.25a3.38,3.38,0,0,1,2.38,1,3.34,3.34,0,0,1,1,2.39v6.75h7.69a6.73,6.73,0,0,1,12.56,3.37,6.73,6.73,0,0,1-6.75,6.75,6.71,6.71,0,0,1-5.81-3.37Zm-33.75,27h-6.75v6.75h6.75Zm47.25,0H246.6v6.75h6.75ZM233.1,279.93H219.6v13.5h13.5Z"/><path class="cls-2" d="M289.68,219.35l-18.23,18.23,18.23,18.23-6,6-24.24-24.24,24.24-24.23Zm19.48,36.46,18.23-18.23-18.23-18.23,6-6,24.24,24.23-24.24,24.24Z"/><path class="cls-2" d="M89.85,290.06v1.24c9.68,5,12.43,14.06,13.19,19h3.69a3.38,3.38,0,0,1,3.37,3.37v13.5a3.34,3.34,0,0,1-1,2.39,3.38,3.38,0,0,1-2.38,1H93.23a3.38,3.38,0,0,1-3.38-3.38v-13.5a3.38,3.38,0,0,1,1-2.38,3.34,3.34,0,0,1,2.39-1h3a18.79,18.79,0,0,0-7-11.54,3.38,3.38,0,0,1-1.16,1,3.22,3.22,0,0,1-1.51.38H66.23a3.31,3.31,0,0,1-1.51-.38,3.38,3.38,0,0,1-1.16-1,18.89,18.89,0,0,0-7,11.54h3a3.38,3.38,0,0,1,3.37,3.37v13.5a3.34,3.34,0,0,1-1,2.39,3.38,3.38,0,0,1-2.38,1H46a3.38,3.38,0,0,1-3.38-3.38v-13.5a3.38,3.38,0,0,1,1-2.38,3.34,3.34,0,0,1,2.39-1h3.68c.77-4.95,3.52-14,13.19-19v-1.24H55.17a6.76,6.76,0,1,1,0-6.75h7.68v-6.75a3.38,3.38,0,0,1,3.38-3.38H86.48a3.38,3.38,0,0,1,2.38,1,3.34,3.34,0,0,1,1,2.39v6.75h7.69a6.73,6.73,0,0,1,12.56,3.37,6.73,6.73,0,0,1-6.75,6.75,6.71,6.71,0,0,1-5.81-3.37Zm-33.75,27H49.35v6.75H56.1Zm47.25,0H96.6v6.75h6.75ZM83.1,279.93H69.6v13.5H83.1Z"/><path class="cls-2" d="M139.68,219.35l-18.23,18.23,18.23,18.23-6,6-24.24-24.24,24.24-24.23Zm19.48,36.46,18.23-18.23-18.23-18.23,6-6,24.24,24.23-24.24,24.24Z"/><path class="cls-2" d="M-10.32,219.35l-18.23,18.23,18.23,18.23-6,6-24.24-24.24,24.24-24.23ZM9.16,255.81l18.23-18.23L9.16,219.35l6-6L39.4,237.58,15.16,261.82Z"/><path class="cls-2" d="M314.85,140.06v1.24c9.68,5,12.43,14.06,13.19,19h3.69a3.38,3.38,0,0,1,3.37,3.37v13.5a3.34,3.34,0,0,1-1,2.39,3.38,3.38,0,0,1-2.38,1h-13.5a3.38,3.38,0,0,1-3.38-3.38v-13.5a3.38,3.38,0,0,1,1-2.38,3.34,3.34,0,0,1,2.39-1h3a18.79,18.79,0,0,0-7.05-11.54,3.38,3.38,0,0,1-1.16,1,3.22,3.22,0,0,1-1.51.38H291.23a3.31,3.31,0,0,1-1.51-.38,3.38,3.38,0,0,1-1.16-1,18.89,18.89,0,0,0-7,11.54h3a3.38,3.38,0,0,1,3.37,3.37v13.5a3.34,3.34,0,0,1-1,2.39,3.38,3.38,0,0,1-2.38,1H271a3.38,3.38,0,0,1-3.38-3.38v-13.5a3.38,3.38,0,0,1,1-2.38,3.34,3.34,0,0,1,2.39-1h3.68c.77-4.95,3.52-14,13.19-19v-1.24h-7.68a6.76,6.76,0,1,1,0-6.75h7.68v-6.75a3.38,3.38,0,0,1,3.38-3.38h20.25a3.38,3.38,0,0,1,2.38,1,3.34,3.34,0,0,1,1,2.39v6.75h7.69a6.73,6.73,0,0,1,12.56,3.37,6.73,6.73,0,0,1-6.75,6.75,6.71,6.71,0,0,1-5.81-3.37Zm-33.75,27h-6.75v6.75h6.75Zm47.25,0H321.6v6.75h6.75ZM308.1,129.93H294.6v13.5h13.5Z"/><path class="cls-2" d="M164.85,140.06v1.24c9.68,5,12.43,14.06,13.19,19h3.69a3.38,3.38,0,0,1,3.37,3.37v13.5a3.34,3.34,0,0,1-1,2.39,3.38,3.38,0,0,1-2.38,1h-13.5a3.38,3.38,0,0,1-3.38-3.38v-13.5a3.38,3.38,0,0,1,1-2.38,3.34,3.34,0,0,1,2.39-1h3a18.79,18.79,0,0,0-7-11.54,3.38,3.38,0,0,1-1.16,1,3.22,3.22,0,0,1-1.51.38H141.23a3.31,3.31,0,0,1-1.51-.38,3.38,3.38,0,0,1-1.16-1,18.89,18.89,0,0,0-7,11.54h3a3.38,3.38,0,0,1,3.37,3.37v13.5a3.34,3.34,0,0,1-1,2.39,3.38,3.38,0,0,1-2.38,1H121a3.38,3.38,0,0,1-3.38-3.38v-13.5a3.38,3.38,0,0,1,1-2.38,3.34,3.34,0,0,1,2.39-1h3.68c.77-4.95,3.52-14,13.19-19v-1.24h-7.68a6.76,6.76,0,1,1,0-6.75h7.68v-6.75a3.38,3.38,0,0,1,3.38-3.38h20.25a3.38,3.38,0,0,1,2.38,1,3.34,3.34,0,0,1,1,2.39v6.75h7.69a6.73,6.73,0,0,1,12.56,3.37,6.73,6.73,0,0,1-6.75,6.75,6.71,6.71,0,0,1-5.81-3.37Zm-33.75,27h-6.75v6.75h6.75Zm47.25,0H171.6v6.75h6.75ZM158.1,129.93H144.6v13.5h13.5Z"/><path class="cls-2" d="M214.68,69.35,196.45,87.58l18.23,18.23-6,6L184.44,87.58l24.24-24.23Zm19.48,36.46,18.23-18.23L234.16,69.35l6-6L264.4,87.58l-24.24,24.24Z"/><path class="cls-2" d="M14.85,140.06v1.24c9.68,5,12.43,14.06,13.19,19h3.69a3.38,3.38,0,0,1,3.37,3.37v13.5a3.34,3.34,0,0,1-1,2.39,3.38,3.38,0,0,1-2.38,1H18.23a3.38,3.38,0,0,1-3.38-3.38v-13.5a3.38,3.38,0,0,1,1-2.38,3.34,3.34,0,0,1,2.39-1h3a18.79,18.79,0,0,0-7-11.54,3.38,3.38,0,0,1-1.16,1,3.22,3.22,0,0,1-1.51.38H-8.77a3.31,3.31,0,0,1-1.51-.38,3.38,3.38,0,0,1-1.16-1,18.89,18.89,0,0,0-7,11.54h3a3.34,3.34,0,0,1,2.38,1,3.34,3.34,0,0,1,1,2.38v13.5a3.34,3.34,0,0,1-1,2.39,3.38,3.38,0,0,1-2.38,1H-29a3.38,3.38,0,0,1-2.39-1,3.38,3.38,0,0,1-1-2.39v-13.5a3.38,3.38,0,0,1,1-2.38,3.34,3.34,0,0,1,2.39-1h3.68c.77-4.95,3.52-14,13.19-19v-1.24h-7.68a6.73,6.73,0,0,1-5.82,3.37,6.77,6.77,0,0,1-4.77-2,6.76,6.76,0,0,1-2-4.78,6.74,6.74,0,0,1,2-4.77,6.74,6.74,0,0,1,4.77-2,6.74,6.74,0,0,1,5.82,3.38h7.68v-6.75a3.38,3.38,0,0,1,1-2.39,3.38,3.38,0,0,1,2.39-1H11.48a3.38,3.38,0,0,1,2.38,1,3.34,3.34,0,0,1,1,2.39v6.75h7.69a6.73,6.73,0,0,1,12.56,3.37,6.73,6.73,0,0,1-6.75,6.75,6.71,6.71,0,0,1-5.81-3.37Zm-33.75,27h-6.75v6.75h6.75Zm47.25,0H21.6v6.75h6.75ZM8.1,129.93H-5.4v13.5H8.1Z"/><path class="cls-2" d="M64.68,69.35,46.45,87.58l18.23,18.23-6,6L34.44,87.58,58.68,63.35Zm19.48,36.46,18.23-18.23L84.16,69.35l6-6L114.4,87.58,90.16,111.82Z"/><path class="cls-2" d="M239.85-9.94V-8.7c9.68,5,12.43,14.06,13.19,19h3.69a3.38,3.38,0,0,1,3.37,3.37v13.5a3.34,3.34,0,0,1-1,2.39,3.38,3.38,0,0,1-2.38,1h-13.5a3.38,3.38,0,0,1-3.38-3.38V13.68a3.38,3.38,0,0,1,1-2.38,3.34,3.34,0,0,1,2.39-1h3a18.79,18.79,0,0,0-7-11.54A3.38,3.38,0,0,1,238-.2a3.22,3.22,0,0,1-1.51.38H216.23a3.31,3.31,0,0,1-1.51-.38,3.38,3.38,0,0,1-1.16-1,18.89,18.89,0,0,0-7,11.54h3a3.38,3.38,0,0,1,3.37,3.37v13.5a3.34,3.34,0,0,1-1,2.39,3.38,3.38,0,0,1-2.38,1H196a3.38,3.38,0,0,1-3.38-3.38V13.68a3.38,3.38,0,0,1,1-2.38,3.34,3.34,0,0,1,2.39-1h3.68c.77-4.95,3.52-14,13.19-19V-9.94h-7.68a6.73,6.73,0,0,1-5.82,3.37,6.77,6.77,0,0,1-4.77-2,6.76,6.76,0,0,1-2-4.78,6.74,6.74,0,0,1,2-4.77,6.74,6.74,0,0,1,4.77-2,6.74,6.74,0,0,1,5.82,3.38h7.68v-6.75a3.38,3.38,0,0,1,1-2.39,3.38,3.38,0,0,1,2.39-1h20.25a3.38,3.38,0,0,1,2.38,1,3.34,3.34,0,0,1,1,2.39v6.75h7.69a6.72,6.72,0,0,1,5.81-3.38,6.76,6.76,0,0,1,4.78,2,6.77,6.77,0,0,1,2,4.77,6.79,6.79,0,0,1-2,4.78,6.79,6.79,0,0,1-4.78,2,6.71,6.71,0,0,1-5.81-3.37Zm-33.75,27h-6.75v6.75h6.75Zm47.25,0H246.6v6.75h6.75ZM233.1-20.07H219.6v13.5h13.5Z"/><path class="cls-2" d="M89.85-9.94V-8.7c9.68,5,12.43,14.06,13.19,19h3.69a3.38,3.38,0,0,1,3.37,3.37v13.5a3.34,3.34,0,0,1-1,2.39,3.38,3.38,0,0,1-2.38,1H93.23a3.38,3.38,0,0,1-3.38-3.38V13.68a3.38,3.38,0,0,1,1-2.38,3.34,3.34,0,0,1,2.39-1h3a18.79,18.79,0,0,0-7-11.54A3.38,3.38,0,0,1,88-.2a3.22,3.22,0,0,1-1.51.38H66.23A3.31,3.31,0,0,1,64.72-.2a3.38,3.38,0,0,1-1.16-1,18.89,18.89,0,0,0-7,11.54h3a3.38,3.38,0,0,1,3.37,3.37v13.5a3.34,3.34,0,0,1-1,2.39,3.38,3.38,0,0,1-2.38,1H46a3.38,3.38,0,0,1-3.38-3.38V13.68a3.38,3.38,0,0,1,1-2.38,3.34,3.34,0,0,1,2.39-1h3.68c.77-4.95,3.52-14,13.19-19V-9.94H55.17a6.73,6.73,0,0,1-5.82,3.37,6.77,6.77,0,0,1-4.77-2,6.76,6.76,0,0,1-2-4.78,6.74,6.74,0,0,1,2-4.77,6.74,6.74,0,0,1,4.77-2,6.74,6.74,0,0,1,5.82,3.38h7.68v-6.75a3.38,3.38,0,0,1,1-2.39,3.38,3.38,0,0,1,2.39-1H86.48a3.38,3.38,0,0,1,2.38,1,3.34,3.34,0,0,1,1,2.39v6.75h7.69a6.72,6.72,0,0,1,5.81-3.38,6.76,6.76,0,0,1,4.78,2,6.77,6.77,0,0,1,2,4.77,6.79,6.79,0,0,1-2,4.78,6.79,6.79,0,0,1-4.78,2,6.71,6.71,0,0,1-5.81-3.37Zm-33.75,27H49.35v6.75H56.1Zm47.25,0H96.6v6.75h6.75ZM83.1-20.07H69.6v13.5H83.1Z"/></pattern></defs><title>patronCswap</title><g id="Capa_2" data-name="Capa 2"><g id="Capa_1-2" data-name="Capa 1"><rect class="cls-3" width="1080" height="1080"/></g></g></svg>